<svg width="22" height="18" viewBox="0 0 22 18" fill="none" xmlns="http://www.w3.org/2000/svg">
<path d="M18.9239 3.94505L18.9239 3.94509C18.8327 4.03369 18.7942 4.1589 18.8174 4.27892C18.8611 4.50368 18.8836 4.73351 18.8843 4.95973L18.8843 4.96138C18.8843 9.42916 16.9041 13.1886 13.4034 15.2178C10.6763 16.7986 7.42565 17.1592 4.27639 16.3294L2.46933 15.8532L4.27272 15.3634C4.30217 15.3554 4.33192 15.3471 4.36186 15.3386L4.3622 15.3385C5.49752 15.019 6.56806 14.5259 7.54454 13.8729C7.66348 13.7934 7.72463 13.6588 7.70987 13.5245C7.69502 13.39 7.60537 13.2698 7.47009 13.2165L7.47008 13.2165C5.68323 12.5124 4.26781 11.5474 3.25925 10.3144C2.24795 9.07809 1.66586 7.59661 1.51136 5.8966L1.51136 5.89659C1.39662 4.63371 1.54353 3.46501 1.7246 2.5957L1.92011 1.65713L2.57786 2.35462C3.27465 3.0935 4.13529 3.88156 5.15447 4.53808C6.91022 5.66903 8.87381 6.2425 11.0001 6.2425C11.2219 6.2425 11.3888 6.06736 11.3888 5.86701V4.96143V4.95725C11.3821 3.88019 11.8515 2.85874 12.6733 2.15454C13.4244 1.51093 14.3858 1.19405 15.3765 1.262L18.9239 3.94505ZM18.9239 3.94505C19.1736 3.70249 19.4025 3.44214 19.6092 3.16658L20.6346 1.79993L19.0342 2.39817C18.8059 2.48353 18.5741 2.56118 18.3392 2.63086L18.3389 2.63093C18.1895 2.67535 18.0289 2.62826 17.9295 2.5156L17.9294 2.51558M18.9239 3.94505L17.9294 2.51558M17.9294 2.51558C17.2754 1.77496 16.367 1.32989 15.3765 1.26201L17.9294 2.51558ZM21.333 0.577909L21.3331 0.577953C21.4669 0.667647 21.5261 0.825706 21.4895 0.973531L21.4895 0.973614C21.1947 2.1658 20.6041 3.26272 19.771 4.17016L19.6203 4.33424L19.6415 4.55599C19.6544 4.69055 19.6612 4.8254 19.6616 4.95959C19.6615 7.44174 19.1089 9.66411 18.0317 11.579C17.0314 13.357 15.5692 14.8381 13.8032 15.8618C11.9549 16.9331 9.79586 17.5018 7.55508 17.5018L7.50176 17.5017L7.5015 17.5017C5.18859 17.4924 2.83492 16.8719 0.697449 15.702C0.539347 15.6155 0.467944 15.4382 0.514182 15.2758L0.514196 15.2758C0.560871 15.1118 0.719131 14.9929 0.904874 15.0001C2.51577 15.0633 4.13257 14.7439 5.59553 14.0882L6.5154 13.6759L5.63057 13.193C1.95386 11.1864 0.925468 8.19268 0.731328 5.89755C0.496809 3.12502 1.41609 0.823765 1.44628 0.749429L1.44632 0.749349C1.49598 0.627012 1.6101 0.535583 1.75008 0.515161L1.75025 0.515135C1.8904 0.494636 2.02864 0.549625 2.11398 0.654688C3.76811 2.69158 6.19626 5.11062 10.0677 5.45104L10.6136 5.49904L10.6115 4.95105C10.6065 3.66391 11.1682 2.4405 12.1575 1.59274L12.1576 1.59272C13.0662 0.814025 14.227 0.430304 15.4315 0.512837C16.4521 0.582796 17.3936 0.98007 18.1372 1.64267L18.3592 1.84052L18.6391 1.73986C19.4357 1.45332 20.189 1.06492 20.8846 0.58157L20.8846 0.581531C21.0182 0.488714 21.1978 0.487179 21.333 0.577909ZM13.1526 14.7852C10.8291 16.1321 8.0995 16.5562 5.38363 16.0637L13.1526 14.7852Z" fill="none" stroke="white"/>
</svg>
