<svg width="42" height="69" viewBox="0 0 42 69" fill="none" xmlns="http://www.w3.org/2000/svg">
<mask id="path-1-outside-1_42_47" maskUnits="userSpaceOnUse" x="2.56555" y="12.4406" width="37" height="53" fill="black">
<rect fill="white" x="2.56555" y="12.4406" width="37" height="53"/>
<path d="M26.1311 55.2345L15.938 55.1517C15.7173 55.1517 15.5104 55.262 15.3724 55.4414C15.2483 55.6207 15.2069 55.8551 15.2897 56.0758C16.6276 59.7724 19.1242 62.8069 20.5035 64.2827C20.5688 64.3527 20.6478 64.4086 20.7356 64.4467C20.8234 64.4849 20.9181 64.5046 21.0138 64.5046C21.1096 64.5046 21.2043 64.4849 21.2921 64.4467C21.3799 64.4086 21.4589 64.3527 21.5242 64.2827C22.8897 62.8069 25.3724 59.8 26.7793 56.1724C26.8198 56.0689 26.8347 55.9572 26.8227 55.8467C26.8107 55.7362 26.7721 55.6303 26.7104 55.5379C26.6404 55.4496 26.5527 55.377 26.4529 55.3247C26.3531 55.2725 26.2435 55.2417 26.1311 55.2345ZM21 62.7931C19.8 61.4138 18.0897 59.1931 16.9587 56.5448L25.0966 56.6138C23.9104 59.2207 22.2 61.4276 21 62.7931ZM37.7862 42.131L35.5242 42.0896C35.2483 42.0896 34.9311 42.2827 34.8483 42.5862C34.2138 44.7517 32.4897 46.3517 30.338 46.7931C30.1587 46.8345 29.9931 46.931 29.8966 47.0965C29.8 47.2483 29.7587 47.4414 29.8 47.6207C30.0345 48.6965 30.1173 51.4827 30.0897 51.8965C30.0621 52.0758 30.0897 52.2551 30.1862 52.4069C30.3104 52.6 30.5311 52.7103 30.7656 52.7103H37.7173C38.0897 52.7103 38.4069 52.4069 38.4069 52.0207L38.4621 42.8207C38.4621 42.4482 38.1587 42.1448 37.7862 42.131ZM37.0276 51.331H31.469C31.469 50.3655 31.3587 48.9034 31.2483 47.9793C33.4414 47.331 35.1931 45.662 36.0069 43.4689L37.0828 43.4827L37.0276 51.331ZM26.5587 47.0276H26.1449C24.1724 47.0276 22.5035 48.4896 22.2828 50.4758V50.7103C22.2828 51.0276 22.2828 51.6207 22.269 51.8414C22.2413 51.9433 22.2374 52.0502 22.2576 52.1539C22.2778 52.2575 22.3216 52.3552 22.3857 52.4392C22.4497 52.5232 22.5322 52.5913 22.6267 52.6384C22.7213 52.6854 22.8254 52.71 22.9311 52.7103H26.9449C27.3035 52.7103 27.6069 52.4345 27.6345 52.0758C27.6621 51.7448 27.6759 51.4 27.6759 51.0689C27.6759 50.0069 27.538 48.8345 27.2483 47.5655C27.2065 47.4136 27.1168 47.2792 26.9926 47.1823C26.8684 47.0854 26.7162 47.0311 26.5587 47.0276ZM26.269 51.331H23.6483V50.5724C23.7862 49.4 24.7931 48.4758 25.9931 48.4069C26.1862 49.3724 26.2828 50.2551 26.2828 51.0689C26.2828 51.1655 26.2828 51.2483 26.269 51.331ZM19.7311 52.0345V50.4896C19.5104 48.531 17.8414 47.0551 15.9518 47.0551H15.938L15.5793 47.0138C15.4146 46.9954 15.2488 47.0368 15.1121 47.1305C14.9753 47.2242 14.8768 47.3639 14.8345 47.5241C14.5129 48.688 14.3459 49.8891 14.338 51.0965V51.3586C14.338 51.5793 14.338 51.7862 14.3242 51.9793C14.3104 52.1724 14.3656 52.3655 14.4897 52.5172C14.6138 52.6689 14.8069 52.7517 15 52.7517H19.0138C19.4138 52.7103 19.7173 52.4069 19.7311 52.0345ZM18.3518 51.331H15.7311V51.0689C15.7311 50.2138 15.8414 49.331 16.0345 48.4069C17.2345 48.4896 18.2138 49.4138 18.3518 50.5172V51.331ZM11.7449 46.862C9.53797 46.3655 7.80003 44.7379 7.23452 42.6414C7.19322 42.4993 7.10852 42.3737 6.99226 42.2822C6.87601 42.1906 6.73404 42.1378 6.58624 42.131L4.32417 42.0758C4.13107 42.0896 3.96555 42.1448 3.82762 42.2689C3.68969 42.3931 3.62072 42.5724 3.62072 42.7655L3.56555 52.0345C3.56555 52.2138 3.63452 52.3931 3.77245 52.531C3.91038 52.6689 4.0759 52.7379 4.25521 52.7379H11.2069C11.5793 52.7379 11.8828 52.4345 11.8966 52.062C11.9242 50.9448 12.0345 48.6138 12.269 47.731C12.3242 47.5517 12.2966 47.3586 12.2 47.1931C12.0964 47.0285 11.9334 46.9099 11.7449 46.862ZM10.5173 51.331H4.93107L4.98624 43.4689L6.04831 43.4965C6.80693 45.6482 8.55865 47.3172 10.7793 48.0345C10.6276 49.0551 10.5587 50.4896 10.5173 51.331ZM16.8207 44.5862C18.2276 44.7931 19.5242 45.4689 20.5035 46.4896C20.6276 46.6276 20.8069 46.6965 21 46.6965C21.1931 46.6965 21.3724 46.6138 21.4966 46.4896C22.4759 45.4689 23.8 44.8069 25.1104 44.6689C25.3449 44.6414 25.538 44.5172 25.6483 44.3103C25.7587 44.1034 25.7587 43.8689 25.6483 43.662C24.3793 41.2207 22.7931 39.2758 21.5656 37.8414C21.5029 37.7673 21.4247 37.7078 21.3365 37.6673C21.2483 37.6268 21.1523 37.6062 21.0552 37.6069C20.8483 37.6345 20.669 37.6896 20.5311 37.8276C19.5931 38.8345 17.7862 40.931 16.3104 43.5655C16.2 43.7586 16.2 44.0069 16.2966 44.2C16.3931 44.3931 16.6 44.5586 16.8207 44.5862ZM21.0276 39.3448C21.9656 40.462 23.0276 41.8551 23.9656 43.4827C22.8897 43.7586 21.869 44.2965 21 45.0689C20.1288 44.3131 19.1024 43.7576 17.9931 43.4414C19.0552 41.7172 20.2 40.2827 21.0276 39.3448ZM38.1035 13.5517C37.9854 13.4951 37.8534 13.4741 37.7236 13.4912C37.5938 13.5084 37.4718 13.5629 37.3724 13.6482C36.4207 14.4345 35.5656 15.3448 34.8483 16.3517C33.4966 18.2689 32.6414 20.5172 32.3793 22.8758L30.8345 34.4482C30.7931 34.7517 30.9724 35.0551 31.2621 35.1793C32.9724 35.8827 34.3242 37.3862 34.7793 39.0965C34.8621 39.4 35.138 39.6069 35.4414 39.6069H37.7035C38.0897 39.6069 38.3931 39.3034 38.3931 38.9172L38.4897 14.1724C38.4928 14.0425 38.4579 13.9146 38.3893 13.8043C38.3207 13.6941 38.2214 13.6062 38.1035 13.5517ZM37.0276 38.2276H35.9518C35.3311 36.462 33.9931 34.9724 32.269 34.1172L33.7449 23.0414C33.9793 20.9034 34.7518 18.8758 35.9655 17.1517C36.3104 16.6689 36.6966 16.2 37.1104 15.7724L37.0276 38.2276ZM4.24141 39.6069H6.51728C6.82072 39.6069 7.09658 39.4 7.17934 39.1103C7.70348 37.3586 9.04141 35.8689 10.6966 35.2345C10.9862 35.1241 11.1793 34.8207 11.138 34.5034L9.63452 22.8758C9.37245 20.5172 8.51727 18.2551 7.16555 16.3379C6.54486 15.4689 5.80003 14.6138 4.79314 13.6345C4.69676 13.54 4.57443 13.4765 4.44176 13.4519C4.30909 13.4273 4.17211 13.4429 4.04831 13.4965C3.78624 13.6069 3.62072 13.8551 3.62072 14.131L3.56555 38.9172C3.56555 39.0965 3.63452 39.2758 3.77245 39.4C3.88279 39.5379 4.04831 39.6069 4.24141 39.6069ZM4.98624 15.8414C5.38624 16.2965 5.73107 16.7241 6.03452 17.1517C7.268 18.8969 8.03265 20.9296 8.25521 23.0551L9.68969 34.1724C7.99162 35.0032 6.678 36.4551 6.02072 38.2276H4.93107L4.98624 15.8414Z"/>
</mask>
<path d="M26.1311 55.2345L15.938 55.1517C15.7173 55.1517 15.5104 55.262 15.3724 55.4414C15.2483 55.6207 15.2069 55.8551 15.2897 56.0758C16.6276 59.7724 19.1242 62.8069 20.5035 64.2827C20.5688 64.3527 20.6478 64.4086 20.7356 64.4467C20.8234 64.4849 20.9181 64.5046 21.0138 64.5046C21.1096 64.5046 21.2043 64.4849 21.2921 64.4467C21.3799 64.4086 21.4589 64.3527 21.5242 64.2827C22.8897 62.8069 25.3724 59.8 26.7793 56.1724C26.8198 56.0689 26.8347 55.9572 26.8227 55.8467C26.8107 55.7362 26.7721 55.6303 26.7104 55.5379C26.6404 55.4496 26.5527 55.377 26.4529 55.3247C26.3531 55.2725 26.2435 55.2417 26.1311 55.2345ZM21 62.7931C19.8 61.4138 18.0897 59.1931 16.9587 56.5448L25.0966 56.6138C23.9104 59.2207 22.2 61.4276 21 62.7931ZM37.7862 42.131L35.5242 42.0896C35.2483 42.0896 34.9311 42.2827 34.8483 42.5862C34.2138 44.7517 32.4897 46.3517 30.338 46.7931C30.1587 46.8345 29.9931 46.931 29.8966 47.0965C29.8 47.2483 29.7587 47.4414 29.8 47.6207C30.0345 48.6965 30.1173 51.4827 30.0897 51.8965C30.0621 52.0758 30.0897 52.2551 30.1862 52.4069C30.3104 52.6 30.5311 52.7103 30.7656 52.7103H37.7173C38.0897 52.7103 38.4069 52.4069 38.4069 52.0207L38.4621 42.8207C38.4621 42.4482 38.1587 42.1448 37.7862 42.131ZM37.0276 51.331H31.469C31.469 50.3655 31.3587 48.9034 31.2483 47.9793C33.4414 47.331 35.1931 45.662 36.0069 43.4689L37.0828 43.4827L37.0276 51.331ZM26.5587 47.0276H26.1449C24.1724 47.0276 22.5035 48.4896 22.2828 50.4758V50.7103C22.2828 51.0276 22.2828 51.6207 22.269 51.8414C22.2413 51.9433 22.2374 52.0502 22.2576 52.1539C22.2778 52.2575 22.3216 52.3552 22.3857 52.4392C22.4497 52.5232 22.5322 52.5913 22.6267 52.6384C22.7213 52.6854 22.8254 52.71 22.9311 52.7103H26.9449C27.3035 52.7103 27.6069 52.4345 27.6345 52.0758C27.6621 51.7448 27.6759 51.4 27.6759 51.0689C27.6759 50.0069 27.538 48.8345 27.2483 47.5655C27.2065 47.4136 27.1168 47.2792 26.9926 47.1823C26.8684 47.0854 26.7162 47.0311 26.5587 47.0276ZM26.269 51.331H23.6483V50.5724C23.7862 49.4 24.7931 48.4758 25.9931 48.4069C26.1862 49.3724 26.2828 50.2551 26.2828 51.0689C26.2828 51.1655 26.2828 51.2483 26.269 51.331ZM19.7311 52.0345V50.4896C19.5104 48.531 17.8414 47.0551 15.9518 47.0551H15.938L15.5793 47.0138C15.4146 46.9954 15.2488 47.0368 15.1121 47.1305C14.9753 47.2242 14.8768 47.3639 14.8345 47.5241C14.5129 48.688 14.3459 49.8891 14.338 51.0965V51.3586C14.338 51.5793 14.338 51.7862 14.3242 51.9793C14.3104 52.1724 14.3656 52.3655 14.4897 52.5172C14.6138 52.6689 14.8069 52.7517 15 52.7517H19.0138C19.4138 52.7103 19.7173 52.4069 19.7311 52.0345ZM18.3518 51.331H15.7311V51.0689C15.7311 50.2138 15.8414 49.331 16.0345 48.4069C17.2345 48.4896 18.2138 49.4138 18.3518 50.5172V51.331ZM11.7449 46.862C9.53797 46.3655 7.80003 44.7379 7.23452 42.6414C7.19322 42.4993 7.10852 42.3737 6.99226 42.2822C6.87601 42.1906 6.73404 42.1378 6.58624 42.131L4.32417 42.0758C4.13107 42.0896 3.96555 42.1448 3.82762 42.2689C3.68969 42.3931 3.62072 42.5724 3.62072 42.7655L3.56555 52.0345C3.56555 52.2138 3.63452 52.3931 3.77245 52.531C3.91038 52.6689 4.0759 52.7379 4.25521 52.7379H11.2069C11.5793 52.7379 11.8828 52.4345 11.8966 52.062C11.9242 50.9448 12.0345 48.6138 12.269 47.731C12.3242 47.5517 12.2966 47.3586 12.2 47.1931C12.0964 47.0285 11.9334 46.9099 11.7449 46.862ZM10.5173 51.331H4.93107L4.98624 43.4689L6.04831 43.4965C6.80693 45.6482 8.55865 47.3172 10.7793 48.0345C10.6276 49.0551 10.5587 50.4896 10.5173 51.331ZM16.8207 44.5862C18.2276 44.7931 19.5242 45.4689 20.5035 46.4896C20.6276 46.6276 20.8069 46.6965 21 46.6965C21.1931 46.6965 21.3724 46.6138 21.4966 46.4896C22.4759 45.4689 23.8 44.8069 25.1104 44.6689C25.3449 44.6414 25.538 44.5172 25.6483 44.3103C25.7587 44.1034 25.7587 43.8689 25.6483 43.662C24.3793 41.2207 22.7931 39.2758 21.5656 37.8414C21.5029 37.7673 21.4247 37.7078 21.3365 37.6673C21.2483 37.6268 21.1523 37.6062 21.0552 37.6069C20.8483 37.6345 20.669 37.6896 20.5311 37.8276C19.5931 38.8345 17.7862 40.931 16.3104 43.5655C16.2 43.7586 16.2 44.0069 16.2966 44.2C16.3931 44.3931 16.6 44.5586 16.8207 44.5862ZM21.0276 39.3448C21.9656 40.462 23.0276 41.8551 23.9656 43.4827C22.8897 43.7586 21.869 44.2965 21 45.0689C20.1288 44.3131 19.1024 43.7576 17.9931 43.4414C19.0552 41.7172 20.2 40.2827 21.0276 39.3448ZM38.1035 13.5517C37.9854 13.4951 37.8534 13.4741 37.7236 13.4912C37.5938 13.5084 37.4718 13.5629 37.3724 13.6482C36.4207 14.4345 35.5656 15.3448 34.8483 16.3517C33.4966 18.2689 32.6414 20.5172 32.3793 22.8758L30.8345 34.4482C30.7931 34.7517 30.9724 35.0551 31.2621 35.1793C32.9724 35.8827 34.3242 37.3862 34.7793 39.0965C34.8621 39.4 35.138 39.6069 35.4414 39.6069H37.7035C38.0897 39.6069 38.3931 39.3034 38.3931 38.9172L38.4897 14.1724C38.4928 14.0425 38.4579 13.9146 38.3893 13.8043C38.3207 13.6941 38.2214 13.6062 38.1035 13.5517ZM37.0276 38.2276H35.9518C35.3311 36.462 33.9931 34.9724 32.269 34.1172L33.7449 23.0414C33.9793 20.9034 34.7518 18.8758 35.9655 17.1517C36.3104 16.6689 36.6966 16.2 37.1104 15.7724L37.0276 38.2276ZM4.24141 39.6069H6.51728C6.82072 39.6069 7.09658 39.4 7.17934 39.1103C7.70348 37.3586 9.04141 35.8689 10.6966 35.2345C10.9862 35.1241 11.1793 34.8207 11.138 34.5034L9.63452 22.8758C9.37245 20.5172 8.51727 18.2551 7.16555 16.3379C6.54486 15.4689 5.80003 14.6138 4.79314 13.6345C4.69676 13.54 4.57443 13.4765 4.44176 13.4519C4.30909 13.4273 4.17211 13.4429 4.04831 13.4965C3.78624 13.6069 3.62072 13.8551 3.62072 14.131L3.56555 38.9172C3.56555 39.0965 3.63452 39.2758 3.77245 39.4C3.88279 39.5379 4.04831 39.6069 4.24141 39.6069ZM4.98624 15.8414C5.38624 16.2965 5.73107 16.7241 6.03452 17.1517C7.268 18.8969 8.03265 20.9296 8.25521 23.0551L9.68969 34.1724C7.99162 35.0032 6.678 36.4551 6.02072 38.2276H4.93107L4.98624 15.8414Z" fill="#50AB09"/>
<path d="M26.1311 55.2345L15.938 55.1517C15.7173 55.1517 15.5104 55.262 15.3724 55.4414C15.2483 55.6207 15.2069 55.8551 15.2897 56.0758C16.6276 59.7724 19.1242 62.8069 20.5035 64.2827C20.5688 64.3527 20.6478 64.4086 20.7356 64.4467C20.8234 64.4849 20.9181 64.5046 21.0138 64.5046C21.1096 64.5046 21.2043 64.4849 21.2921 64.4467C21.3799 64.4086 21.4589 64.3527 21.5242 64.2827C22.8897 62.8069 25.3724 59.8 26.7793 56.1724C26.8198 56.0689 26.8347 55.9572 26.8227 55.8467C26.8107 55.7362 26.7721 55.6303 26.7104 55.5379C26.6404 55.4496 26.5527 55.377 26.4529 55.3247C26.3531 55.2725 26.2435 55.2417 26.1311 55.2345ZM21 62.7931C19.8 61.4138 18.0897 59.1931 16.9587 56.5448L25.0966 56.6138C23.9104 59.2207 22.2 61.4276 21 62.7931ZM37.7862 42.131L35.5242 42.0896C35.2483 42.0896 34.9311 42.2827 34.8483 42.5862C34.2138 44.7517 32.4897 46.3517 30.338 46.7931C30.1587 46.8345 29.9931 46.931 29.8966 47.0965C29.8 47.2483 29.7587 47.4414 29.8 47.6207C30.0345 48.6965 30.1173 51.4827 30.0897 51.8965C30.0621 52.0758 30.0897 52.2551 30.1862 52.4069C30.3104 52.6 30.5311 52.7103 30.7656 52.7103H37.7173C38.0897 52.7103 38.4069 52.4069 38.4069 52.0207L38.4621 42.8207C38.4621 42.4482 38.1587 42.1448 37.7862 42.131ZM37.0276 51.331H31.469C31.469 50.3655 31.3587 48.9034 31.2483 47.9793C33.4414 47.331 35.1931 45.662 36.0069 43.4689L37.0828 43.4827L37.0276 51.331ZM26.5587 47.0276H26.1449C24.1724 47.0276 22.5035 48.4896 22.2828 50.4758V50.7103C22.2828 51.0276 22.2828 51.6207 22.269 51.8414C22.2413 51.9433 22.2374 52.0502 22.2576 52.1539C22.2778 52.2575 22.3216 52.3552 22.3857 52.4392C22.4497 52.5232 22.5322 52.5913 22.6267 52.6384C22.7213 52.6854 22.8254 52.71 22.9311 52.7103H26.9449C27.3035 52.7103 27.6069 52.4345 27.6345 52.0758C27.6621 51.7448 27.6759 51.4 27.6759 51.0689C27.6759 50.0069 27.538 48.8345 27.2483 47.5655C27.2065 47.4136 27.1168 47.2792 26.9926 47.1823C26.8684 47.0854 26.7162 47.0311 26.5587 47.0276ZM26.269 51.331H23.6483V50.5724C23.7862 49.4 24.7931 48.4758 25.9931 48.4069C26.1862 49.3724 26.2828 50.2551 26.2828 51.0689C26.2828 51.1655 26.2828 51.2483 26.269 51.331ZM19.7311 52.0345V50.4896C19.5104 48.531 17.8414 47.0551 15.9518 47.0551H15.938L15.5793 47.0138C15.4146 46.9954 15.2488 47.0368 15.1121 47.1305C14.9753 47.2242 14.8768 47.3639 14.8345 47.5241C14.5129 48.688 14.3459 49.8891 14.338 51.0965V51.3586C14.338 51.5793 14.338 51.7862 14.3242 51.9793C14.3104 52.1724 14.3656 52.3655 14.4897 52.5172C14.6138 52.6689 14.8069 52.7517 15 52.7517H19.0138C19.4138 52.7103 19.7173 52.4069 19.7311 52.0345ZM18.3518 51.331H15.7311V51.0689C15.7311 50.2138 15.8414 49.331 16.0345 48.4069C17.2345 48.4896 18.2138 49.4138 18.3518 50.5172V51.331ZM11.7449 46.862C9.53797 46.3655 7.80003 44.7379 7.23452 42.6414C7.19322 42.4993 7.10852 42.3737 6.99226 42.2822C6.87601 42.1906 6.73404 42.1378 6.58624 42.131L4.32417 42.0758C4.13107 42.0896 3.96555 42.1448 3.82762 42.2689C3.68969 42.3931 3.62072 42.5724 3.62072 42.7655L3.56555 52.0345C3.56555 52.2138 3.63452 52.3931 3.77245 52.531C3.91038 52.6689 4.0759 52.7379 4.25521 52.7379H11.2069C11.5793 52.7379 11.8828 52.4345 11.8966 52.062C11.9242 50.9448 12.0345 48.6138 12.269 47.731C12.3242 47.5517 12.2966 47.3586 12.2 47.1931C12.0964 47.0285 11.9334 46.9099 11.7449 46.862ZM10.5173 51.331H4.93107L4.98624 43.4689L6.04831 43.4965C6.80693 45.6482 8.55865 47.3172 10.7793 48.0345C10.6276 49.0551 10.5587 50.4896 10.5173 51.331ZM16.8207 44.5862C18.2276 44.7931 19.5242 45.4689 20.5035 46.4896C20.6276 46.6276 20.8069 46.6965 21 46.6965C21.1931 46.6965 21.3724 46.6138 21.4966 46.4896C22.4759 45.4689 23.8 44.8069 25.1104 44.6689C25.3449 44.6414 25.538 44.5172 25.6483 44.3103C25.7587 44.1034 25.7587 43.8689 25.6483 43.662C24.3793 41.2207 22.7931 39.2758 21.5656 37.8414C21.5029 37.7673 21.4247 37.7078 21.3365 37.6673C21.2483 37.6268 21.1523 37.6062 21.0552 37.6069C20.8483 37.6345 20.669 37.6896 20.5311 37.8276C19.5931 38.8345 17.7862 40.931 16.3104 43.5655C16.2 43.7586 16.2 44.0069 16.2966 44.2C16.3931 44.3931 16.6 44.5586 16.8207 44.5862ZM21.0276 39.3448C21.9656 40.462 23.0276 41.8551 23.9656 43.4827C22.8897 43.7586 21.869 44.2965 21 45.0689C20.1288 44.3131 19.1024 43.7576 17.9931 43.4414C19.0552 41.7172 20.2 40.2827 21.0276 39.3448ZM38.1035 13.5517C37.9854 13.4951 37.8534 13.4741 37.7236 13.4912C37.5938 13.5084 37.4718 13.5629 37.3724 13.6482C36.4207 14.4345 35.5656 15.3448 34.8483 16.3517C33.4966 18.2689 32.6414 20.5172 32.3793 22.8758L30.8345 34.4482C30.7931 34.7517 30.9724 35.0551 31.2621 35.1793C32.9724 35.8827 34.3242 37.3862 34.7793 39.0965C34.8621 39.4 35.138 39.6069 35.4414 39.6069H37.7035C38.0897 39.6069 38.3931 39.3034 38.3931 38.9172L38.4897 14.1724C38.4928 14.0425 38.4579 13.9146 38.3893 13.8043C38.3207 13.6941 38.2214 13.6062 38.1035 13.5517ZM37.0276 38.2276H35.9518C35.3311 36.462 33.9931 34.9724 32.269 34.1172L33.7449 23.0414C33.9793 20.9034 34.7518 18.8758 35.9655 17.1517C36.3104 16.6689 36.6966 16.2 37.1104 15.7724L37.0276 38.2276ZM4.24141 39.6069H6.51728C6.82072 39.6069 7.09658 39.4 7.17934 39.1103C7.70348 37.3586 9.04141 35.8689 10.6966 35.2345C10.9862 35.1241 11.1793 34.8207 11.138 34.5034L9.63452 22.8758C9.37245 20.5172 8.51727 18.2551 7.16555 16.3379C6.54486 15.4689 5.80003 14.6138 4.79314 13.6345C4.69676 13.54 4.57443 13.4765 4.44176 13.4519C4.30909 13.4273 4.17211 13.4429 4.04831 13.4965C3.78624 13.6069 3.62072 13.8551 3.62072 14.131L3.56555 38.9172C3.56555 39.0965 3.63452 39.2758 3.77245 39.4C3.88279 39.5379 4.04831 39.6069 4.24141 39.6069ZM4.98624 15.8414C5.38624 16.2965 5.73107 16.7241 6.03452 17.1517C7.268 18.8969 8.03265 20.9296 8.25521 23.0551L9.68969 34.1724C7.99162 35.0032 6.678 36.4551 6.02072 38.2276H4.93107L4.98624 15.8414Z" stroke="#50AB09" stroke-width="0.4" mask="url(#path-1-outside-1_42_47)"/>
<path d="M12.7655 43.8414C12.0483 43.6069 10.9724 43.0965 10.5311 42.3103M12.7655 43.8414C13.4552 42.531 15.3724 39.0276 16.6138 37.4552C18.1862 35.4828 19.0552 32.9724 19.0552 30.3517V27.8552C19.0552 23.2897 18.2276 18.5034 16.5449 13.1793M12.7655 43.8414L12.7966 43.7463C12.7705 43.7378 12.7438 43.7288 12.7167 43.7196M12.7655 43.8414L12.677 43.7948C12.6899 43.7705 12.7031 43.7454 12.7167 43.7196M10.5311 42.3103L16.5449 13.1793M10.5311 42.3103C10.0483 41.4552 10.0207 40.4207 10.4621 39.4828M10.5311 42.3103L10.4621 39.4828M16.5449 13.1793L16.4495 13.2094C16.4495 13.2095 16.4495 13.2095 16.4495 13.2096M16.5449 13.1793L16.4496 13.2097C16.4496 13.2096 16.4496 13.2096 16.4495 13.2096M16.4495 13.2096C18.1299 18.5262 18.9552 23.3021 18.9552 27.8552V30.3517C18.9552 32.9505 18.0935 35.4387 16.5356 37.3928L16.5353 37.3932C15.3104 38.9448 13.437 42.3564 12.7167 43.7196M16.4495 13.2096C16.143 12.2481 15.9897 11.2586 15.9897 10.269C15.9897 8.14822 16.7707 6.18904 17.7139 4.59393C18.6574 2.99832 19.7668 1.76085 20.432 1.08174L20.4328 1.08101C20.5952 0.918532 20.8036 0.873872 20.9848 0.845987L20.9931 0.844706L21.0016 0.844836C21.1067 0.846455 21.2104 0.869873 21.3061 0.913608C21.4008 0.956899 21.4856 1.01917 21.5553 1.09654C22.2282 1.76283 23.3433 2.98924 24.2911 4.58161C25.2397 6.17525 26.0242 8.14136 26.0242 10.2828C26.0242 11.2315 25.8707 12.2211 25.5505 13.2235C23.8702 18.5399 23.0586 23.3295 23.0586 27.869V30.3655C23.0586 32.9781 23.9204 35.4662 25.4643 37.4065C26.7183 38.974 28.6227 42.4737 29.3281 43.7956C29.7527 43.6936 30.3515 43.4838 30.8493 43.0633C31.3725 42.6211 31.7889 41.9425 31.769 40.8921C31.7288 39.4089 30.6613 38.2246 29.2372 38.0649L29.235 38.0647C28.0594 37.9069 27.2663 37.0106 27.3833 35.9135L27.3836 35.9115L29.0799 22.548C29.0799 22.5477 29.08 22.5474 29.08 22.5471C29.3928 19.629 30.4483 16.8397 32.146 14.4457M12.7167 43.7196C12.3784 43.6034 11.9728 43.4292 11.5973 43.1976C11.1907 42.9469 10.8272 42.6337 10.6183 42.2614L10.6181 42.2612C10.1522 41.4358 10.1242 40.4356 10.5526 39.5253L10.5527 39.525C10.9207 38.7364 11.7271 38.1989 12.8908 38.023L12.8919 38.0228C13.9656 37.8487 14.7188 36.8624 14.6029 35.7619L14.6027 35.7599L12.9339 22.5201L12.8345 22.531M12.8345 22.531L12.9337 22.5185L12.9338 22.5193C12.6146 19.6063 11.5603 16.818 9.86795 14.4182L9.86778 14.418C8.16507 12.0187 5.87761 10.0942 3.2224 8.82699L3.22233 8.82695C3.06182 8.75052 2.76429 8.67604 2.41881 8.6707C2.07183 8.66533 1.66697 8.72951 1.29585 8.94041M12.8345 22.531C12.5173 19.6345 11.469 16.8621 9.78623 14.4759C8.09337 12.0905 5.81917 10.1771 3.17933 8.91724C2.88968 8.77931 2.0483 8.62758 1.34485 9.02758M12.8345 22.531L14.5035 35.7724M1.29585 8.94041C0.896263 9.16256 0.407806 9.64557 0.293756 10.6578L0.293127 10.6577V10.669V53.9655C0.293127 55.0966 1.20686 56.0103 2.33795 56.0103H11.7815M1.29585 8.94041C1.296 8.94033 1.29614 8.94025 1.29629 8.94017L1.34485 9.02758M1.29585 8.94041C1.29571 8.94049 1.29556 8.94057 1.29542 8.94065L1.34485 9.02758M11.7815 56.0103L11.8838 56.34L11.8839 56.3403C14.0129 63.1142 19.3942 67.883 19.6523 68.0967M11.7815 56.0103L11.7597 55.94L11.8552 55.9103M11.7815 56.0103H11.8552V55.9103M19.6523 68.0967C20.0281 68.4286 20.506 68.6172 21 68.6172C21.4934 68.6172 21.9858 68.429 22.3488 68.1096L22.3489 68.1095C22.5855 67.9007 27.997 63.0854 30.1299 56.3405L30.13 56.34L30.2323 56.0103M19.6523 68.0967C19.6519 68.0964 19.6514 68.096 19.651 68.0956L19.7173 68.0207M19.6523 68.0967C19.6528 68.0971 19.6533 68.0975 19.6537 68.0979L19.7173 68.0207M30.2323 56.0103H39.6621C40.7932 56.0103 41.7069 55.0966 41.7069 53.9655V10.6828C41.7069 9.97077 41.4503 9.35713 40.9629 9.0023M30.2323 56.0103H30.1586V55.9103L30.2541 55.94L30.2323 56.0103ZM40.9629 9.0023C40.9627 9.00216 40.9625 9.00202 40.9623 9.00188L40.9035 9.08276L40.9635 9.00276C40.9633 9.0026 40.9631 9.00245 40.9629 9.0023ZM40.9629 9.0023C40.4315 8.60411 39.7327 8.55445 38.8887 8.80762C35.7633 9.72863 33.5394 12.4728 32.146 14.4457M32.146 14.4457C32.146 14.4457 32.146 14.4456 32.146 14.4456L32.2276 14.5034L32.1459 14.4458C32.1459 14.4457 32.146 14.4457 32.146 14.4457ZM19.7173 68.0207C19.4828 67.8276 14.1035 63.069 11.9793 56.3103M19.7173 68.0207C20.0759 68.3379 20.5311 68.5172 21 68.5172C21.469 68.5172 21.938 68.3379 22.2828 68.0345C22.5173 67.8276 27.9104 63.0276 30.0345 56.3103H11.9793M11.9793 56.3103L11.8552 55.9103M11.9793 56.3103L14.5035 35.7724M10.4621 39.4828C10.8483 38.6552 11.6897 38.1034 12.8759 37.9241C13.8966 37.7586 14.6138 36.8207 14.5035 35.7724M10.4621 39.4828L14.5035 35.7724M11.8552 55.9103H2.33795C1.26209 55.9103 0.393127 55.0414 0.393127 53.9655V10.669C0.503472 9.68965 0.972437 9.23448 1.34485 9.02758M28.8908 54.9978L28.8913 54.996C29.0012 54.6666 29.3007 54.4448 29.6483 54.4448H39.6621C39.9103 54.4448 40.1276 54.2275 40.1276 53.9793V10.669C40.1276 10.5611 40.1117 10.4645 40.0875 10.3891C40.0624 10.3105 40.032 10.266 40.0119 10.2492C39.9987 10.2382 39.943 10.2138 39.819 10.2138C39.7014 10.2138 39.5386 10.2359 39.3314 10.296C36.6924 11.0715 34.71 13.5395 33.4403 15.3336L33.44 15.3339C31.9054 17.4851 30.9459 20.0343 30.6581 22.7073L30.6579 22.7091L30.6578 22.7091L28.9616 36.0724C28.9615 36.0727 28.9615 36.0731 28.9614 36.0735C28.9465 36.2216 29.0209 36.3129 29.1282 36.3758C29.2402 36.4415 29.3759 36.4667 29.4376 36.4729L29.4384 36.473C31.6557 36.7131 33.3057 38.5494 33.3621 40.832L33.3621 40.8324C33.3973 42.4875 32.6875 43.6059 31.7757 44.3251C30.868 45.0411 29.7623 45.3603 28.9954 45.4306L28.991 45.431L28.991 45.4309C28.6669 45.4464 28.365 45.2914 28.2209 45.0033L28.2203 45.0021L28.2185 44.9986L28.2119 44.986L28.1884 44.941C28.1682 44.9025 28.1392 44.8473 28.1022 44.7774C28.0282 44.6375 27.9223 44.4387 27.7915 44.1959C27.5299 43.7104 27.1686 43.0494 26.763 42.3338C25.9505 40.9003 24.9646 39.2555 24.2463 38.3593C22.4657 36.1474 21.4931 33.2974 21.4931 30.3379V27.8414C21.4931 23.1259 22.3229 18.1777 24.0495 12.7215L24.0497 12.721C24.3227 11.8747 24.4586 11.0437 24.4586 10.2552C24.4586 8.62964 23.8905 7.07759 23.1642 5.76035C22.4666 4.49521 21.6262 3.45205 21.0139 2.77608C19.6617 4.27199 17.5828 7.1115 17.5828 10.2552C17.5828 11.0717 17.7189 11.9029 17.9781 12.7215L17.9781 12.7215C19.7047 18.1775 20.5483 23.1257 20.5483 27.8414V30.3379C20.5483 33.2841 19.5617 36.1339 17.7816 38.359C17.0699 39.2555 16.0875 40.9002 15.2767 42.3337C14.872 43.0493 14.5111 43.7103 14.2497 44.1959C14.119 44.4387 14.0132 44.6375 13.9392 44.7774C13.9022 44.8473 13.8732 44.9025 13.853 44.941L13.8295 44.986L13.823 44.9986L13.8211 45.0021L13.8205 45.0033L13.8187 45.0069L13.8187 45.0068C13.646 45.3207 13.3005 45.4777 12.9565 45.416C12.8717 45.4034 12.2082 45.2539 11.4403 44.894C10.6603 44.5283 9.75557 43.9378 9.24407 43.0355L9.24382 43.0351C8.52432 41.7513 8.46845 40.2276 9.1164 38.8472C9.71294 37.5552 10.9737 36.7118 12.6402 36.4597L12.6417 36.4595C12.8886 36.4259 13.0606 36.2012 13.0385 35.9486L11.3698 22.7091L11.3696 22.7073C11.0822 20.0576 10.1248 17.5248 8.58746 15.3476C7.0281 13.1728 4.9505 11.4079 2.57318 10.2704C2.57143 10.2702 2.56981 10.27 2.56838 10.2699L2.56615 10.2696C2.55473 10.2683 2.54089 10.2667 2.52456 10.265C2.4919 10.2618 2.45066 10.2586 2.40692 10.2586C2.29235 10.2586 2.14914 10.2848 2.06119 10.3392C1.97431 10.3978 1.89908 10.5258 1.87244 10.7708V53.9793C1.87244 54.2275 2.08973 54.4448 2.33795 54.4448H12.3655C12.534 54.4448 12.6981 54.4982 12.8342 54.5975C12.9703 54.6967 13.0714 54.8366 13.1228 54.997L13.1231 54.9978L13.3989 55.8805C15.3901 62.2524 20.475 66.7336 20.6935 66.9247C20.8775 67.0858 21.1646 67.0695 21.3046 66.9403L21.3069 66.9382C21.511 66.7614 26.6236 62.2113 28.6149 55.8805L28.8908 54.9978ZM28.8908 54.9978L28.615 55.8803L28.8908 54.9978ZM25.9242 10.2828C25.9242 6.04827 22.8207 2.48965 21.4828 1.16551L29.2483 37.9655C30.7242 38.131 31.8276 39.3586 31.869 40.8897C31.9104 43.0552 30.1448 43.7172 29.2759 43.9103C28.6 42.6414 26.6552 39.0552 25.3862 37.469C23.8276 35.5103 22.9586 33 22.9586 30.3655V27.869C22.9586 23.3172 23.7724 18.5172 25.4552 13.1931C25.7724 12.2 25.9242 11.2207 25.9242 10.2828Z" fill="#50AB09" stroke="#50AB09" stroke-width="0.2"/>
</svg>
