<svg width="750" height="672" viewBox="0 0 750 672" fill="none" xmlns="http://www.w3.org/2000/svg">
<circle cx="375" cy="336" r="188" fill="url(#paint0_radial_46_48)"/>
<path d="M374.966 454.641C440.352 454.641 493.359 401.635 493.359 336.248C493.359 270.861 440.352 217.855 374.966 217.855C309.579 217.855 256.572 270.861 256.572 336.248C256.572 401.635 309.579 454.641 374.966 454.641Z" fill="url(#paint1_linear_46_48)"/>
<path d="M374 119.635C493.19 119.635 590 216.611 590 335.635C590 454.658 493.024 551.635 374 551.635" stroke="url(#paint2_linear_46_48)" stroke-width="3.31634" stroke-miterlimit="10"/>
<path d="M374 119.635C254.81 119.635 158 216.611 158 335.635C158 454.658 254.976 551.635 374 551.635" stroke="url(#paint3_linear_46_48)" stroke-width="3.31634" stroke-miterlimit="10"/>
<g opacity="0.1">
<path d="M636.127 188.505C636.127 166.451 654.035 148.377 676.255 148.377C698.309 148.377 716.383 166.286 716.383 188.505C716.383 210.559 698.474 228.633 676.255 228.633C654.035 228.633 636.127 210.559 636.127 188.505Z" fill="black"/>
</g>
<g opacity="0.1">
<path d="M669.291 336.248C669.291 314.194 687.199 296.12 709.418 296.12C731.472 296.12 749.546 314.028 749.546 336.248C749.546 358.301 731.638 376.376 709.418 376.376C687.199 376.376 669.291 358.301 669.291 336.248Z" fill="black"/>
</g>
<g opacity="0.1">
<path d="M636.127 483.991C636.127 461.937 654.035 443.863 676.255 443.863C698.309 443.863 716.383 461.771 716.383 483.991C716.383 506.044 698.474 524.118 676.255 524.118C654.035 523.953 636.127 506.044 636.127 483.991Z" fill="black"/>
</g>
<g opacity="0.1">
<path d="M503.474 631.734C503.474 609.68 521.382 591.606 543.601 591.606C565.655 591.606 583.729 609.514 583.729 631.734C583.729 653.953 565.821 671.861 543.601 671.861C521.382 671.696 503.474 653.787 503.474 631.734Z" fill="black"/>
</g>
<g opacity="0.1">
<path d="M503.474 40.7622C503.474 18.7086 521.382 0.634521 543.601 0.634521C565.655 0.634521 583.729 18.5427 583.729 40.7622C583.729 62.8158 565.821 80.8899 543.601 80.8899C521.382 80.8899 503.474 62.8158 503.474 40.7622Z" fill="black"/>
</g>
<path d="M591.025 336.248H709.418" stroke="url(#paint4_linear_46_48)" stroke-width="1.65817" stroke-miterlimit="10"/>
<path d="M568.806 431.758L676.255 483.991" stroke="url(#paint5_linear_46_48)" stroke-width="1.65817" stroke-miterlimit="10"/>
<path d="M506.458 507.537L543.601 631.733" stroke="url(#paint6_linear_46_48)" stroke-width="1.65817" stroke-miterlimit="10"/>
<g opacity="0.3">
<path d="M497.054 512.778C493.67 508.459 494.593 502.134 498.9 498.741C503.208 495.347 509.515 496.118 512.899 500.592C516.284 504.911 515.515 511.236 511.053 514.629C509.207 516.018 507.054 516.635 504.9 516.635C501.977 516.635 498.9 515.246 497.054 512.778Z" fill="url(#paint7_linear_46_48)"/>
<path d="M497.054 512.778C493.67 508.459 494.593 502.134 498.9 498.741C503.208 495.347 509.515 496.118 512.899 500.592C516.284 504.911 515.515 511.236 511.053 514.629C509.207 516.018 507.054 516.635 504.9 516.635C501.977 516.635 498.9 515.246 497.054 512.778Z" fill="url(#paint8_linear_46_48)"/>
</g>
<g opacity="0.3">
<path d="M563.512 439.556C558.592 437.092 556.593 431.085 559.053 426.156C561.513 421.227 567.511 419.225 572.431 421.689C577.352 424.154 579.351 430.161 577.045 435.09C575.353 438.632 571.816 440.635 568.126 440.635C566.434 440.635 564.896 440.172 563.512 439.556Z" fill="url(#paint9_linear_46_48)"/>
<path d="M563.512 439.556C558.592 437.092 556.593 431.085 559.053 426.156C561.513 421.227 567.511 419.225 572.431 421.689C577.352 424.154 579.351 430.161 577.045 435.09C575.353 438.632 571.816 440.635 568.126 440.635C566.434 440.635 564.896 440.172 563.512 439.556Z" fill="url(#paint10_linear_46_48)"/>
</g>
<g opacity="0.3">
<path d="M580 334.635C580 329.096 584.462 324.635 590 324.635C595.538 324.635 600 329.096 600 334.635C600 340.173 595.538 344.635 590 344.635C584.462 344.635 580 340.173 580 334.635Z" fill="url(#paint11_linear_46_48)"/>
<path d="M580 334.635C580 329.096 584.462 324.635 590 324.635C595.538 324.635 600 329.096 600 334.635C600 340.173 595.538 344.635 590 344.635C584.462 344.635 580 340.173 580 334.635Z" fill="url(#paint12_linear_46_48)"/>
</g>
<g opacity="0.3">
<path d="M558.056 244.09C555.589 239.161 557.593 233.154 562.528 230.689C567.463 228.225 573.477 230.227 575.944 235.156C578.411 240.085 576.407 246.092 571.472 248.556C570.084 249.326 568.542 249.635 567 249.635C563.299 249.635 559.752 247.632 558.056 244.09Z" fill="url(#paint13_linear_46_48)"/>
<path d="M558.056 244.09C555.589 239.161 557.593 233.154 562.528 230.689C567.463 228.225 573.477 230.227 575.944 235.156C578.411 240.085 576.407 246.092 571.472 248.556C570.084 249.326 568.542 249.635 567 249.635C563.299 249.635 559.752 247.632 558.056 244.09Z" fill="url(#paint14_linear_46_48)"/>
</g>
<path d="M676 227C698.091 227 716 209.091 716 187C716 164.909 698.091 147 676 147C653.909 147 636 164.909 636 187C636 209.091 653.909 227 676 227Z" fill="url(#paint15_linear_46_48)"/>
<path d="M676 227C698.091 227 716 209.091 716 187C716 164.909 698.091 147 676 147C653.909 147 636 164.909 636 187C636 209.091 653.909 227 676 227Z" fill="url(#paint16_linear_46_48)"/>
<path d="M709 375C731.091 375 749 357.091 749 335C749 312.909 731.091 295 709 295C686.909 295 669 312.909 669 335C669 357.091 686.909 375 709 375Z" fill="url(#paint17_linear_46_48)"/>
<path d="M709 375C731.091 375 749 357.091 749 335C749 312.909 731.091 295 709 295C686.909 295 669 312.909 669 335C669 357.091 686.909 375 709 375Z" fill="url(#paint18_linear_46_48)"/>
<path fill-rule="evenodd" clip-rule="evenodd" d="M690.995 318.469C690.493 318.469 690.086 318.876 690.086 319.378V337.587C690.086 337.864 689.862 338.087 689.586 338.087C689.31 338.087 689.086 337.864 689.086 337.587V319.378C689.086 318.324 689.941 317.469 690.995 317.469H727.005C728.059 317.469 728.914 318.324 728.914 319.378V342.919C728.914 343.195 728.69 343.419 728.414 343.419H689.586C689.31 343.419 689.086 343.195 689.086 342.919V340.579C689.086 340.303 689.31 340.079 689.586 340.079C689.862 340.079 690.086 340.303 690.086 340.579V342.419H727.914V319.378C727.914 318.876 727.507 318.469 727.005 318.469H690.995Z" fill="#333333"/>
<path fill-rule="evenodd" clip-rule="evenodd" d="M689.086 342.919C689.086 342.642 689.31 342.419 689.586 342.419H728.414C728.69 342.419 728.914 342.642 728.914 342.919V345.673C728.914 346.727 728.059 347.582 727.005 347.582H721.516C721.24 347.582 721.016 347.358 721.016 347.082C721.016 346.806 721.24 346.582 721.516 346.582H727.005C727.507 346.582 727.914 346.175 727.914 345.673V343.419H690.086V345.673C690.086 346.175 690.493 346.582 690.995 346.582H718.789C719.065 346.582 719.289 346.806 719.289 347.082C719.289 347.358 719.065 347.582 718.789 347.582H690.995C689.941 347.582 689.086 346.727 689.086 345.673V342.919Z" fill="#333333"/>
<path fill-rule="evenodd" clip-rule="evenodd" d="M703.14 347.082C703.14 346.806 703.363 346.582 703.64 346.582H714.36C714.637 346.582 714.86 346.806 714.86 347.082V354.031C714.86 354.307 714.637 354.531 714.36 354.531H703.64C703.363 354.531 703.14 354.307 703.14 354.031V347.082ZM704.14 347.582V353.531H713.86V347.582H704.14Z" fill="#333333"/>
<path fill-rule="evenodd" clip-rule="evenodd" d="M699.275 354.031C699.275 353.755 699.499 353.531 699.775 353.531H718.225C718.501 353.531 718.725 353.755 718.725 354.031C718.725 354.307 718.501 354.531 718.225 354.531H699.775C699.499 354.531 699.275 354.307 699.275 354.031Z" fill="#333333"/>
<path fill-rule="evenodd" clip-rule="evenodd" d="M699.806 324.946C699.942 324.722 700.227 324.641 700.461 324.759L709.227 329.229C709.395 329.314 709.5 329.486 709.5 329.674V340.431C709.5 340.707 709.276 340.931 709 340.931C708.725 340.931 708.45 340.866 708.198 340.737C708.198 340.737 708.198 340.737 708.198 340.737C708.198 340.737 708.198 340.737 708.198 340.737L700.534 336.83C700.533 336.83 700.533 336.83 700.533 336.83C699.915 336.515 699.534 335.87 699.534 335.175V325.922C699.534 325.571 699.631 325.234 699.806 324.946ZM700.534 325.919C700.534 325.92 700.534 325.921 700.534 325.922V335.175C700.534 335.507 700.716 335.801 700.987 335.939L700.988 335.939L708.5 339.769V329.98L700.534 325.919Z" fill="#333333"/>
<path fill-rule="evenodd" clip-rule="evenodd" d="M717.539 324.759C717.772 324.641 718.058 324.722 718.194 324.945C718.369 325.234 718.466 325.571 718.466 325.922V335.175C718.466 335.87 718.085 336.515 717.466 336.83L709.802 340.737C709.55 340.866 709.276 340.931 709 340.931C708.724 340.931 708.5 340.707 708.5 340.431V329.674C708.5 329.486 708.606 329.314 708.773 329.229L717.539 324.759ZM709.5 329.98V339.769L717.012 335.939L717.013 335.939C717.284 335.801 717.466 335.508 717.466 335.175V325.922C717.466 325.921 717.466 325.92 717.466 325.919L709.5 329.98Z" fill="#333333"/>
<path fill-rule="evenodd" clip-rule="evenodd" d="M709.363 321.049C709.136 320.927 708.868 320.926 708.641 321.047C708.639 321.048 708.638 321.049 708.636 321.05L708.635 321.05C708.634 321.051 708.632 321.052 708.63 321.053L706.081 322.422C705.838 322.552 705.535 322.461 705.404 322.218C705.274 321.974 705.365 321.671 705.608 321.541L708.164 320.168C708.166 320.167 708.168 320.166 708.171 320.165L708.172 320.164C708.174 320.163 708.177 320.161 708.179 320.16C708.7 319.887 709.318 319.889 709.837 320.168L717.5 324.285C717.5 324.285 717.5 324.286 717.501 324.286C717.792 324.442 718.028 324.673 718.194 324.946C718.266 325.064 718.285 325.208 718.247 325.342C718.209 325.475 718.117 325.587 717.994 325.65L709.227 330.12C709.085 330.192 708.916 330.192 708.773 330.12L700.006 325.65C699.883 325.587 699.79 325.475 699.753 325.341C699.715 325.207 699.734 325.064 699.806 324.945C699.972 324.673 700.208 324.442 700.5 324.285C700.5 324.285 700.5 324.285 700.5 324.285L702.966 322.96C703.209 322.83 703.513 322.921 703.643 323.164C703.774 323.408 703.683 323.711 703.439 323.841L701.112 325.092L709 329.113L716.888 325.092L709.363 321.049L709.363 321.049ZM708.649 321.043C708.65 321.042 708.651 321.042 708.651 321.041L708.65 321.042" fill="#333333"/>
<path fill-rule="evenodd" clip-rule="evenodd" d="M715.426 320.516C715.515 320.443 715.627 320.402 715.743 320.402H720.87C721.146 320.402 721.37 320.626 721.37 320.902C721.37 321.178 721.146 321.402 720.87 321.402H715.923L712.117 324.533C711.904 324.709 711.589 324.678 711.414 324.465C711.238 324.252 711.269 323.937 711.482 323.761L715.426 320.516Z" fill="#333333"/>
<path fill-rule="evenodd" clip-rule="evenodd" d="M712.012 335.646C712.207 335.451 712.524 335.451 712.719 335.646L716.808 339.735H721.01C721.286 339.735 721.51 339.959 721.51 340.235C721.51 340.511 721.286 340.735 721.01 340.735H716.601C716.468 340.735 716.341 340.682 716.247 340.589L712.012 336.354C711.817 336.158 711.817 335.842 712.012 335.646Z" fill="#333333"/>
<path fill-rule="evenodd" clip-rule="evenodd" d="M696.443 334.376C696.443 334.1 696.667 333.876 696.943 333.876H703.325C703.601 333.876 703.825 334.1 703.825 334.376C703.825 334.652 703.601 334.876 703.325 334.876H696.943C696.667 334.876 696.443 334.652 696.443 334.376Z" fill="#333333"/>
<path fill-rule="evenodd" clip-rule="evenodd" d="M721.046 321.402C720.855 321.402 720.7 321.557 720.7 321.748V326.532C720.7 326.723 720.855 326.878 721.046 326.878H725.338C725.529 326.878 725.684 326.723 725.684 326.532V321.748C725.684 321.557 725.529 321.402 725.338 321.402H721.046ZM719.7 321.748C719.7 321.005 720.302 320.402 721.046 320.402H725.338C726.082 320.402 726.684 321.005 726.684 321.748V326.532C726.684 327.275 726.082 327.878 725.338 327.878H721.046C720.303 327.878 719.7 327.275 719.7 326.532V321.748Z" fill="#333333"/>
<path fill-rule="evenodd" clip-rule="evenodd" d="M721.617 323.069C721.617 322.793 721.841 322.569 722.117 322.569H724.317C724.593 322.569 724.817 322.793 724.817 323.069C724.817 323.346 724.593 323.569 724.317 323.569H722.117C721.841 323.569 721.617 323.346 721.617 323.069Z" fill="#333333"/>
<path fill-rule="evenodd" clip-rule="evenodd" d="M721.617 325.21C721.617 324.934 721.841 324.71 722.117 324.71H724.317C724.593 324.71 724.817 324.934 724.817 325.21C724.817 325.487 724.593 325.71 724.317 325.71H722.117C721.841 325.71 721.617 325.487 721.617 325.21Z" fill="#333333"/>
<path fill-rule="evenodd" clip-rule="evenodd" d="M721.046 334.26C720.855 334.26 720.7 334.415 720.7 334.606V339.389C720.7 339.58 720.855 339.735 721.046 339.735H725.338C725.529 339.735 725.684 339.58 725.684 339.389V334.606C725.684 334.415 725.529 334.26 725.338 334.26H721.046ZM719.7 334.606C719.7 333.862 720.302 333.26 721.046 333.26H725.338C726.082 333.26 726.684 333.862 726.684 334.606V339.389C726.684 340.132 726.082 340.735 725.338 340.735H721.046C720.303 340.735 719.7 340.132 719.7 339.389V334.606Z" fill="#333333"/>
<path fill-rule="evenodd" clip-rule="evenodd" d="M721.617 335.927C721.617 335.651 721.841 335.427 722.117 335.427H724.317C724.593 335.427 724.817 335.651 724.817 335.927C724.817 336.203 724.593 336.427 724.317 336.427H722.117C721.841 336.427 721.617 336.203 721.617 335.927Z" fill="#333333"/>
<path fill-rule="evenodd" clip-rule="evenodd" d="M721.617 338.068C721.617 337.792 721.841 337.568 722.117 337.568H724.317C724.593 337.568 724.817 337.792 724.817 338.068C724.817 338.344 724.593 338.568 724.317 338.568H722.117C721.841 338.568 721.617 338.344 721.617 338.068Z" fill="#333333"/>
<path fill-rule="evenodd" clip-rule="evenodd" d="M692.65 328.401C692.459 328.401 692.304 328.556 692.304 328.747V333.53C692.304 333.721 692.459 333.876 692.65 333.876H696.943C697.134 333.876 697.289 333.721 697.289 333.53C697.289 333.53 697.289 333.53 697.289 333.53V328.747C697.289 328.556 697.134 328.401 696.943 328.401H692.65ZM691.304 328.747C691.304 328.003 691.907 327.401 692.65 327.401H696.943C697.686 327.401 698.289 328.003 698.289 328.747V333.53C698.289 334.273 697.686 334.876 696.943 334.876H692.65C691.907 334.876 691.304 334.273 691.304 333.53V328.747Z" fill="#333333"/>
<path fill-rule="evenodd" clip-rule="evenodd" d="M693.222 330.068C693.222 329.792 693.446 329.568 693.722 329.568H695.922C696.198 329.568 696.422 329.792 696.422 330.068C696.422 330.344 696.198 330.568 695.922 330.568H693.722C693.446 330.568 693.222 330.344 693.222 330.068Z" fill="#333333"/>
<path fill-rule="evenodd" clip-rule="evenodd" d="M693.222 332.209C693.222 331.933 693.446 331.709 693.722 331.709H695.922C696.198 331.709 696.422 331.933 696.422 332.209C696.422 332.485 696.198 332.709 695.922 332.709H693.722C693.446 332.709 693.222 332.485 693.222 332.209Z" fill="#333333"/>
<path fill-rule="evenodd" clip-rule="evenodd" d="M691.304 320.876C691.304 320.6 691.528 320.376 691.804 320.376H695.922C696.198 320.376 696.422 320.6 696.422 320.876C696.422 321.152 696.198 321.376 695.922 321.376H691.804C691.528 321.376 691.304 321.152 691.304 320.876Z" fill="#333333"/>
<path fill-rule="evenodd" clip-rule="evenodd" d="M691.304 323.041C691.304 322.764 691.528 322.541 691.804 322.541H694.796C695.073 322.541 695.296 322.764 695.296 323.041C695.296 323.317 695.073 323.541 694.796 323.541H691.804C691.528 323.541 691.304 323.317 691.304 323.041Z" fill="#333333"/>
<path fill-rule="evenodd" clip-rule="evenodd" d="M691.304 325.205C691.304 324.929 691.528 324.705 691.804 324.705H697.276C697.552 324.705 697.776 324.929 697.776 325.205C697.776 325.481 697.552 325.705 697.276 325.705H691.804C691.528 325.705 691.304 325.481 691.304 325.205Z" fill="#333333"/>
<path fill-rule="evenodd" clip-rule="evenodd" d="M724.97 342.419C725.246 342.419 725.47 342.642 725.47 342.919V344.67C725.47 344.947 725.246 345.17 724.97 345.17C724.694 345.17 724.47 344.947 724.47 344.67V342.919C724.47 342.642 724.694 342.419 724.97 342.419Z" fill="#333333"/>
<path d="M676 523C698.091 523 716 505.091 716 483C716 460.909 698.091 443 676 443C653.909 443 636 460.909 636 483C636 505.091 653.909 523 676 523Z" fill="url(#paint19_linear_46_48)"/>
<path d="M676 523C698.091 523 716 505.091 716 483C716 460.909 698.091 443 676 443C653.909 443 636 460.909 636 483C636 505.091 653.909 523 676 523Z" fill="url(#paint20_linear_46_48)"/>
<path d="M543 671C565.091 671 583 653.091 583 631C583 608.909 565.091 591 543 591C520.909 591 503 608.909 503 631C503 653.091 520.909 671 543 671Z" fill="url(#paint21_linear_46_48)"/>
<path d="M506.292 164.793L543.601 40.7622" stroke="url(#paint22_linear_46_48)" stroke-width="1.65817" stroke-miterlimit="10"/>
<g opacity="0.3">
<path d="M498.909 171.624C494.592 168.223 493.667 161.884 497.059 157.555C500.451 153.225 506.773 152.298 511.091 155.699C515.408 159.101 516.333 165.44 512.941 169.769C510.936 172.398 508.007 173.635 504.923 173.635C502.764 173.635 500.605 173.016 498.909 171.624Z" fill="url(#paint23_linear_46_48)"/>
<path d="M498.909 171.624C494.592 168.223 493.667 161.884 497.059 157.555C500.451 153.225 506.773 152.298 511.091 155.699C515.408 159.101 516.333 165.44 512.941 169.769C510.936 172.398 508.007 173.635 504.923 173.635C502.764 173.635 500.605 173.016 498.909 171.624Z" fill="url(#paint24_linear_46_48)"/>
</g>
<path d="M543 80C565.091 80 583 62.0914 583 40C583 17.9086 565.091 0 543 0C520.909 0 503 17.9086 503 40C503 62.0914 520.909 80 543 80Z" fill="url(#paint25_linear_46_48)"/>
<path d="M543 80C565.091 80 583 62.0914 583 40C583 17.9086 565.091 0 543 0C520.909 0 503 17.9086 503 40C503 62.0914 520.909 80 543 80Z" fill="url(#paint26_linear_46_48)"/>
<path d="M156.393 336.248H38" stroke="url(#paint27_linear_46_48)" stroke-width="1.65817" stroke-miterlimit="10"/>
<path d="M180.575 431.758L73.1252 483.991" stroke="url(#paint28_linear_46_48)" stroke-width="1.65817" stroke-miterlimit="10"/>
<path d="M180.575 241.232L73.1252 189" stroke="url(#paint29_linear_46_48)" stroke-width="1.65817" stroke-miterlimit="10"/>
<path d="M242.922 507.537L205.779 631.733" stroke="url(#paint30_linear_46_48)" stroke-width="1.65817" stroke-miterlimit="10"/>
<g opacity="0.3">
<path d="M249.946 512.778C253.33 508.459 252.407 502.134 248.1 498.741C243.792 495.347 237.485 496.118 234.101 500.592C230.716 504.911 231.485 511.236 235.947 514.629C237.793 516.018 239.946 516.635 242.1 516.635C245.023 516.635 247.946 515.246 249.946 512.778Z" fill="url(#paint31_linear_46_48)"/>
<path d="M249.946 512.778C253.33 508.459 252.407 502.134 248.1 498.741C243.792 495.347 237.485 496.118 234.101 500.592C230.716 504.911 231.485 511.236 235.947 514.629C237.793 516.018 239.946 516.635 242.1 516.635C245.023 516.635 247.946 515.246 249.946 512.778Z" fill="url(#paint32_linear_46_48)"/>
</g>
<g opacity="0.3">
<path d="M183.488 439.556C188.408 437.092 190.407 431.085 187.947 426.156C185.487 421.227 179.489 419.225 174.569 421.689C169.648 424.154 167.649 430.161 169.955 435.09C171.647 438.632 175.184 440.635 178.874 440.635C180.566 440.635 182.104 440.172 183.488 439.556Z" fill="url(#paint33_linear_46_48)"/>
<path d="M183.488 439.556C188.408 437.092 190.407 431.085 187.947 426.156C185.487 421.227 179.489 419.225 174.569 421.689C169.648 424.154 167.649 430.161 169.955 435.09C171.647 438.632 175.184 440.635 178.874 440.635C180.566 440.635 182.104 440.172 183.488 439.556Z" fill="url(#paint34_linear_46_48)"/>
</g>
<g opacity="0.3">
<path d="M165 334.635C165 329.096 160.538 324.635 155 324.635C149.462 324.635 145 329.096 145 334.635C145 340.173 149.462 344.635 155 344.635C160.538 344.635 165 340.173 165 334.635Z" fill="url(#paint35_linear_46_48)"/>
<path d="M165 334.635C165 329.096 160.538 324.635 155 324.635C149.462 324.635 145 329.096 145 334.635C145 340.173 149.462 344.635 155 344.635C160.538 344.635 165 340.173 165 334.635Z" fill="url(#paint36_linear_46_48)"/>
</g>
<g opacity="0.3">
<path d="M187.944 244.09C190.411 239.161 188.407 233.154 183.472 230.689C178.537 228.225 172.523 230.227 170.056 235.156C167.589 240.085 169.593 246.092 174.528 248.556C175.916 249.326 177.458 249.635 179 249.635C182.701 249.635 186.248 247.632 187.944 244.09Z" fill="url(#paint37_linear_46_48)"/>
<path d="M187.944 244.09C190.411 239.161 188.407 233.154 183.472 230.689C178.537 228.225 172.523 230.227 170.056 235.156C167.589 240.085 169.593 246.092 174.528 248.556C175.916 249.326 177.458 249.635 179 249.635C182.701 249.635 186.248 247.632 187.944 244.09Z" fill="url(#paint38_linear_46_48)"/>
</g>
<g opacity="0.1">
<path d="M165.817 631.734C165.817 609.68 183.725 591.606 205.945 591.606C228.164 591.606 246.072 609.514 246.072 631.734C246.072 653.953 228.164 671.861 205.945 671.861C183.725 671.861 165.817 653.787 165.817 631.734Z" fill="black"/>
</g>
<path d="M33 187C33 165.017 50.8512 147 73 147C95.1487 147 113 164.851 113 187C113 208.983 95.1487 227 73 227C50.8512 227 33 208.983 33 187Z" fill="url(#paint39_linear_46_48)"/>
<path d="M33 187C33 165.017 50.8512 147 73 147C95.1487 147 113 164.851 113 187C113 208.983 95.1487 227 73 227C50.8512 227 33 208.983 33 187Z" fill="url(#paint40_linear_46_48)"/>
<path d="M0 335C0 313.017 17.8512 295 40 295C62.1487 295 80 312.851 80 335C80 356.983 62.1487 375 40 375C17.8512 375 0 356.983 0 335Z" fill="url(#paint41_linear_46_48)"/>
<path d="M0 335C0 313.017 17.8512 295 40 295C62.1487 295 80 312.851 80 335C80 356.983 62.1487 375 40 375C17.8512 375 0 356.983 0 335Z" fill="url(#paint42_linear_46_48)"/>
<mask id="mask0_46_48" style="mask-type:luminance" maskUnits="userSpaceOnUse" x="20" y="316" width="40" height="40">
<path d="M20 316H60V356H20V316Z" fill="white"/>
</mask>
<g mask="url(#mask0_46_48)">
<path d="M30.2365 323.18H22.2158C21.4232 323.18 20.7812 323.823 20.7812 324.694V345.402C20.7812 346.115 21.4232 346.757 22.2158 346.757H50.333C51.1257 346.757 51.7676 346.115 51.7676 345.402V334.807L50.4646 334.728C49.8737 334.728 49.3944 334.248 49.3944 333.657V332.894C49.3944 332.086 48.4679 331.441 47.6737 331.9L47.0126 332.282C46.5006 332.578 45.8459 332.402 45.5501 331.89L44.3181 329.757C44.0223 329.245 44.1984 328.59 44.7096 328.294L45.3706 327.913C46.1019 327.49 46.1019 326.348 45.3706 325.926L44.7104 325.545C44.1984 325.249 44.0223 324.593 44.3181 324.082L44.8388 323.18H37.2518" stroke="#333333" stroke-miterlimit="10" stroke-linecap="round" stroke-linejoin="round"/>
<path d="M51.768 342.781V345.402C51.768 346.115 51.1258 346.757 50.3328 346.757H22.2156C21.4234 346.757 20.7812 346.115 20.7812 345.402V342.781H51.768Z" stroke="#333333" stroke-miterlimit="10" stroke-linecap="round" stroke-linejoin="round"/>
<path d="M40.2853 350.895L39.8032 346.757H33.5432L33.061 350.895C32.9314 352.031 31.9693 352.889 30.8258 352.887C30.7877 352.889 30.8643 352.89 30.8258 352.89H42.5205C42.4821 352.89 42.5587 352.889 42.5205 352.887C41.3771 352.889 40.4149 352.031 40.2853 350.895Z" stroke="#333333" stroke-miterlimit="10" stroke-linecap="round" stroke-linejoin="round"/>
<path d="M30.8258 352.89H29.9014" stroke="#333333" stroke-miterlimit="10" stroke-linecap="round" stroke-linejoin="round"/>
<path d="M43.4449 352.89H42.5205" stroke="#333333" stroke-miterlimit="10" stroke-linecap="round" stroke-linejoin="round"/>
<path d="M27.2397 331.307L25.019 328.973L27.2397 326.639" stroke="#333333" stroke-miterlimit="10" stroke-linecap="round" stroke-linejoin="round"/>
<path d="M36.0159 331.307L38.2366 328.973L36.0159 326.639" stroke="#333333" stroke-miterlimit="10" stroke-linecap="round" stroke-linejoin="round"/>
<path d="M33.111 326.639L30.2361 331.306" stroke="#333333" stroke-miterlimit="10" stroke-linecap="round" stroke-linejoin="round"/>
<path d="M38.383 334.83H25.0189" stroke="#333333" stroke-miterlimit="10" stroke-linecap="round" stroke-linejoin="round"/>
<path d="M34.5774 338.794H25.019" stroke="#333333" stroke-miterlimit="10" stroke-linecap="round" stroke-linejoin="round"/>
<path d="M45.4429 338.794H38.769" stroke="#333333" stroke-miterlimit="10" stroke-linecap="round" stroke-linejoin="round"/>
<path d="M51.6965 324.446C53.0621 324.446 54.1697 325.553 54.1697 326.919C54.1697 328.285 53.0621 329.392 51.6965 329.392C50.3308 329.392 49.2237 328.285 49.2237 326.919C49.2237 325.553 50.3308 324.446 51.6965 324.446ZM44.7105 325.544L45.371 325.926C46.1022 326.347 46.1022 327.49 45.371 327.913L44.7099 328.294C44.1984 328.59 44.0226 329.244 44.3183 329.757L45.5505 331.89C45.8462 332.402 46.5007 332.578 47.0127 332.282L47.6738 331.9C48.4676 331.442 49.3942 332.086 49.3942 332.893V333.657C49.3942 334.248 49.8735 334.728 50.4648 334.728H52.9286C53.52 334.728 53.9993 334.248 53.9993 333.657V332.893C53.9993 332.086 54.9258 331.442 55.7197 331.9L56.3808 332.282C56.8929 332.578 57.5474 332.402 57.843 331.89L59.0752 329.757C59.3708 329.244 59.195 328.59 58.6829 328.294L58.0225 327.913C57.293 327.491 57.2897 326.348 58.0225 325.926L58.6829 325.544C59.195 325.249 59.3708 324.594 59.0752 324.082L57.843 321.948C57.5474 321.436 56.8929 321.261 56.3808 321.556L55.7197 321.938C54.9253 322.396 53.9993 321.752 53.9993 320.945V320.181C53.9993 319.59 53.52 319.11 52.9286 319.11H50.4648C49.8735 319.11 49.3942 319.59 49.3942 320.181V320.945C49.3942 321.752 48.4682 322.396 47.6739 321.938L47.0127 321.556C46.5007 321.261 45.8462 321.436 45.5505 321.948L44.3183 324.082C44.0226 324.593 44.1984 325.249 44.7105 325.544Z" stroke="#333333" stroke-miterlimit="10" stroke-linecap="round" stroke-linejoin="round"/>
</g>
<path d="M33 483C33 461.017 50.8512 443 73 443C95.1487 443 113 460.851 113 483C113 504.984 95.1487 523 73 523C50.8512 523 33 504.984 33 483Z" fill="url(#paint43_linear_46_48)"/>
<path d="M33 483C33 461.017 50.8512 443 73 443C95.1487 443 113 460.851 113 483C113 504.984 95.1487 523 73 523C50.8512 523 33 504.984 33 483Z" fill="url(#paint44_linear_46_48)"/>
<path d="M165 630C165 608.017 182.851 590 205 590C227.149 590 245 607.851 245 630C245 652.149 227.149 670 205 670C182.851 670 165 651.983 165 630Z" fill="url(#paint45_linear_46_48)"/>
<path d="M165 630C165 608.017 182.851 590 205 590C227.149 590 245 607.851 245 630C245 652.149 227.149 670 205 670C182.851 670 165 651.983 165 630Z" fill="url(#paint46_linear_46_48)"/>
<g clip-path="url(#clip0_46_48)">
<mask id="mask1_46_48" style="mask-type:luminance" maskUnits="userSpaceOnUse" x="186" y="612" width="40" height="40">
<path d="M186 612H226V652H186V612Z" fill="white"/>
</mask>
<g mask="url(#mask1_46_48)">
<path fill-rule="evenodd" clip-rule="evenodd" d="M188.099 634.545C188.375 634.545 188.599 634.321 188.599 634.045V630.77C188.599 629.818 189.37 629.046 190.323 629.046H190.687C190.964 629.046 191.187 628.822 191.187 628.546C191.187 628.27 190.964 628.046 190.687 628.046H190.323C188.818 628.046 187.599 629.266 187.599 630.77V634.045C187.599 634.321 187.822 634.545 188.099 634.545Z" fill="#333333"/>
<path fill-rule="evenodd" clip-rule="evenodd" d="M223.901 634.467C224.178 634.467 224.401 634.243 224.401 633.967V630.77C224.401 629.266 223.182 628.046 221.677 628.046H221.391C221.114 628.046 220.891 628.27 220.891 628.546C220.891 628.822 221.114 629.046 221.391 629.046H221.677C222.63 629.046 223.401 629.818 223.401 630.77V633.967C223.401 634.243 223.625 634.467 223.901 634.467Z" fill="#333333"/>
<path fill-rule="evenodd" clip-rule="evenodd" d="M190.692 632.639C190.968 632.639 191.192 632.416 191.192 632.139V628.402C191.192 627.005 192.088 625.816 193.339 625.382C193.6 625.292 193.738 625.007 193.647 624.746C193.556 624.485 193.271 624.347 193.011 624.438C191.37 625.007 190.192 626.566 190.192 628.402V632.139C190.192 632.416 190.415 632.639 190.692 632.639Z" fill="#333333"/>
<path fill-rule="evenodd" clip-rule="evenodd" d="M200.417 629.762C200.693 629.756 200.911 629.527 200.905 629.251L200.885 628.396C200.883 626.575 199.72 625.027 198.098 624.449C197.838 624.356 197.552 624.492 197.459 624.752C197.367 625.012 197.502 625.298 197.762 625.391C199 625.832 199.885 627.014 199.885 628.402V628.414L199.885 628.414L199.905 629.274C199.912 629.55 200.14 629.768 200.417 629.762Z" fill="#333333"/>
<path fill-rule="evenodd" clip-rule="evenodd" d="M192.044 622.946C192.044 624.875 193.607 626.438 195.535 626.438H195.542C197.47 626.438 199.033 624.875 199.033 622.946V620.402C199.033 618.474 197.47 616.911 195.542 616.911H195.535C193.607 616.911 192.044 618.474 192.044 620.402V622.946ZM195.535 625.438C194.159 625.438 193.044 624.322 193.044 622.946V620.402C193.044 619.026 194.159 617.911 195.535 617.911H195.542C196.918 617.911 198.033 619.026 198.033 620.402V622.946C198.033 624.322 196.918 625.438 195.542 625.438H195.535Z" fill="#333333"/>
<path fill-rule="evenodd" clip-rule="evenodd" d="M192.229 622.063C192.346 622.158 192.5 622.195 192.647 622.163L198.637 620.898C198.868 620.849 199.033 620.645 199.033 620.408C199.033 618.477 197.469 616.911 195.538 616.911C193.608 616.911 192.044 618.477 192.044 620.408V621.674C192.044 621.825 192.112 621.968 192.229 622.063ZM193.044 621.058V620.408C193.044 619.028 194.161 617.911 195.538 617.911C196.78 617.911 197.811 618.819 198.002 620.01L193.044 621.058Z" fill="#333333"/>
<path fill-rule="evenodd" clip-rule="evenodd" d="M220.566 626.784C220.73 627.006 221.043 627.053 221.266 626.889C221.84 626.465 222.214 625.782 222.214 625.012V618.412C222.214 617.123 221.169 616.079 219.881 616.079C218.852 616.079 217.98 616.745 217.67 617.668C217.582 617.93 217.723 618.213 217.984 618.301C218.246 618.389 218.53 618.248 218.618 617.987C218.795 617.458 219.294 617.079 219.881 617.079C220.617 617.079 221.214 617.676 221.214 618.412V625.012C221.214 625.451 221.001 625.841 220.671 626.085C220.449 626.249 220.402 626.562 220.566 626.784Z" fill="#333333"/>
<path fill-rule="evenodd" clip-rule="evenodd" d="M221.308 632.639C221.585 632.639 221.808 632.416 221.808 632.139V628.402C221.808 626.578 220.645 625.027 219.021 624.448C218.761 624.356 218.475 624.492 218.382 624.752C218.289 625.012 218.425 625.298 218.685 625.39C219.923 625.832 220.808 627.014 220.808 628.402V632.139C220.808 632.416 221.032 632.639 221.308 632.639Z" fill="#333333"/>
<path fill-rule="evenodd" clip-rule="evenodd" d="M211.615 629.766C211.891 629.766 212.115 629.542 212.115 629.266V628.402C212.115 627.014 213 625.831 214.238 625.39C214.499 625.298 214.634 625.012 214.542 624.752C214.449 624.492 214.163 624.356 213.903 624.448C212.279 625.027 211.115 626.578 211.115 628.402V629.266C211.115 629.542 211.339 629.766 211.615 629.766Z" fill="#333333"/>
<path fill-rule="evenodd" clip-rule="evenodd" d="M212.967 622.946C212.967 624.875 214.53 626.438 216.458 626.438H216.465C218.393 626.438 219.956 624.875 219.956 622.946V620.402C219.956 618.474 218.393 616.911 216.465 616.911H216.458C214.53 616.911 212.967 618.474 212.967 620.402V622.946ZM216.458 625.438C215.082 625.438 213.967 624.322 213.967 622.946V620.402C213.967 619.026 215.082 617.911 216.458 617.911H216.465C217.841 617.911 218.956 619.026 218.956 620.402V622.946C218.956 624.322 217.841 625.438 216.465 625.438H216.458Z" fill="#333333"/>
<path fill-rule="evenodd" clip-rule="evenodd" d="M213.152 622.063C213.269 622.158 213.423 622.195 213.57 622.163L219.56 620.898C219.791 620.849 219.956 620.645 219.956 620.408C219.956 618.477 218.392 616.911 216.462 616.911C214.531 616.911 212.967 618.477 212.967 620.408V621.674C212.967 621.825 213.035 621.968 213.152 622.063ZM213.967 621.058V620.408C213.967 619.028 215.084 617.911 216.462 617.911C217.703 617.911 218.734 618.819 218.925 620.01L213.967 621.058Z" fill="#333333"/>
<path fill-rule="evenodd" clip-rule="evenodd" d="M200.368 645.855C202.154 646.086 204.044 646.21 206 646.21C207.952 646.21 209.838 646.086 211.621 645.856C211.895 645.821 212.088 645.57 212.053 645.297C212.017 645.023 211.767 644.829 211.493 644.865C209.754 645.089 207.91 645.21 206 645.21C204.086 645.21 202.238 645.088 200.496 644.863C200.223 644.828 199.972 645.021 199.936 645.295C199.901 645.569 200.094 645.82 200.368 645.855Z" fill="#333333"/>
<path fill-rule="evenodd" clip-rule="evenodd" d="M220.491 642.908C220.619 643.152 220.921 643.248 221.165 643.12C224.004 641.643 225.914 639.644 225.914 637.309C225.914 634.894 223.873 632.838 220.864 631.344C217.817 629.831 213.603 628.798 208.868 628.498C208.592 628.48 208.355 628.69 208.337 628.965C208.32 629.241 208.529 629.478 208.805 629.496C213.447 629.79 217.522 630.801 220.419 632.24C223.355 633.698 224.914 635.501 224.914 637.309C224.914 639.056 223.46 640.799 220.704 642.233C220.459 642.361 220.364 642.663 220.491 642.908Z" fill="#333333"/>
<path fill-rule="evenodd" clip-rule="evenodd" d="M191.549 642.927C191.676 642.682 191.58 642.38 191.335 642.253C188.554 640.816 187.086 639.064 187.086 637.309C187.086 635.431 188.769 633.56 191.912 632.079C195.012 630.619 199.354 629.633 204.253 629.442C204.529 629.431 204.744 629.199 204.733 628.923C204.722 628.647 204.49 628.432 204.214 628.443C199.218 628.638 194.737 629.644 191.486 631.175C188.28 632.685 186.086 634.804 186.086 637.309C186.086 639.655 188.014 641.662 190.876 643.142C191.121 643.268 191.423 643.172 191.549 642.927Z" fill="#333333"/>
<path fill-rule="evenodd" clip-rule="evenodd" d="M190.692 644.983C190.968 644.983 191.192 644.759 191.192 644.483C191.192 643.355 191.775 642.364 192.66 641.794C192.892 641.645 192.959 641.335 192.809 641.103C192.66 640.871 192.35 640.804 192.118 640.953C190.96 641.699 190.192 643.001 190.192 644.483C190.192 644.759 190.415 644.983 190.692 644.983Z" fill="#333333"/>
<path fill-rule="evenodd" clip-rule="evenodd" d="M200.385 647.185C200.661 647.185 200.885 646.961 200.885 646.685V644.483C200.885 642.985 200.1 641.671 198.92 640.929C198.687 640.782 198.378 640.852 198.231 641.086C198.084 641.32 198.154 641.628 198.388 641.775C199.289 642.342 199.885 643.343 199.885 644.483V646.685C199.885 646.961 200.109 647.185 200.385 647.185Z" fill="#333333"/>
<path fill-rule="evenodd" clip-rule="evenodd" d="M196.373 645.602C196.491 645.851 196.789 645.957 197.039 645.839C198.217 645.279 199.033 644.077 199.033 642.684V636.483C199.033 634.555 197.47 632.992 195.542 632.992H195.535C193.607 632.992 192.044 634.555 192.044 636.483V642.684C192.044 643.509 192.331 644.269 192.81 644.867C192.983 645.082 193.298 645.117 193.513 644.944C193.729 644.771 193.763 644.457 193.59 644.241C193.248 643.815 193.044 643.274 193.044 642.684V636.483C193.044 635.107 194.159 633.992 195.535 633.992H195.542C196.918 633.992 198.033 635.107 198.033 636.483V642.684C198.033 643.677 197.452 644.535 196.61 644.936C196.36 645.054 196.254 645.352 196.373 645.602Z" fill="#333333"/>
<path fill-rule="evenodd" clip-rule="evenodd" d="M221.308 645.13C221.585 645.13 221.808 644.906 221.808 644.63V644.483C221.808 642.643 220.625 641.081 218.979 640.515C218.717 640.425 218.433 640.564 218.343 640.825C218.253 641.086 218.392 641.371 218.653 641.46C219.908 641.892 220.808 643.083 220.808 644.483V644.63C220.808 644.906 221.032 645.13 221.308 645.13Z" fill="#333333"/>
<path fill-rule="evenodd" clip-rule="evenodd" d="M211.615 647.214C211.891 647.214 212.115 646.99 212.115 646.714V644.483C212.115 643.077 213.024 641.881 214.288 641.454C214.55 641.366 214.69 641.082 214.602 640.821C214.513 640.559 214.23 640.418 213.968 640.507C212.31 641.066 211.115 642.635 211.115 644.483V646.714C211.115 646.99 211.339 647.214 211.615 647.214Z" fill="#333333"/>
<path fill-rule="evenodd" clip-rule="evenodd" d="M212.967 639.027C212.967 640.956 214.53 642.519 216.458 642.519H216.465C218.393 642.519 219.956 640.956 219.956 639.027V636.483C219.956 634.555 218.393 632.992 216.465 632.992H216.458C214.53 632.992 212.967 634.555 212.967 636.483V639.027ZM216.458 641.519C215.082 641.519 213.967 640.403 213.967 639.027V636.483C213.967 635.107 215.082 633.992 216.458 633.992H216.465C217.841 633.992 218.956 635.107 218.956 636.483V639.027C218.956 640.403 217.841 641.519 216.465 641.519H216.458Z" fill="#333333"/>
<path fill-rule="evenodd" clip-rule="evenodd" d="M187.599 649.952C187.599 651.035 188.477 651.914 189.561 651.914H197.272C197.548 651.914 197.772 651.69 197.772 651.414V646.851C197.772 645.347 196.553 644.127 195.048 644.127H190.323C188.818 644.127 187.599 645.347 187.599 646.851V649.952ZM189.561 650.914C189.029 650.914 188.599 650.483 188.599 649.952V646.851C188.599 645.899 189.37 645.127 190.323 645.127H195.048C196 645.127 196.772 645.899 196.772 646.851V650.914H189.561Z" fill="#333333"/>
<path fill-rule="evenodd" clip-rule="evenodd" d="M196.826 651.681C196.974 651.915 197.283 651.984 197.516 651.837L201.914 649.054C202.379 648.75 202.659 648.232 202.659 647.676C202.659 646.37 201.211 645.585 200.116 646.296L196.984 648.251C196.75 648.397 196.678 648.705 196.825 648.939C196.971 649.174 197.279 649.245 197.514 649.099L200.659 647.136C201.089 646.855 201.659 647.163 201.659 647.676C201.659 647.893 201.55 648.096 201.369 648.215L196.981 650.991C196.748 651.139 196.679 651.448 196.826 651.681Z" fill="#333333"/>
<path fill-rule="evenodd" clip-rule="evenodd" d="M214.969 651.852C215.129 651.764 215.228 651.596 215.228 651.414V648.675C215.228 648.502 215.139 648.342 214.993 648.251L211.86 646.296C210.766 645.585 209.318 646.37 209.318 647.676C209.318 648.232 209.598 648.75 210.063 649.054L210.069 649.058L210.069 649.058L214.461 651.837C214.615 651.934 214.809 651.94 214.969 651.852ZM210.607 648.215C210.427 648.096 210.318 647.893 210.318 647.676C210.318 647.163 210.888 646.855 211.318 647.136L211.327 647.142L211.327 647.142L214.228 648.952V650.506L210.607 648.215Z" fill="#333333"/>
<path fill-rule="evenodd" clip-rule="evenodd" d="M214.228 651.414C214.228 651.69 214.452 651.914 214.728 651.914H222.439C223.484 651.914 224.335 651.097 224.396 650.069C224.412 649.793 224.202 649.556 223.927 649.54C223.651 649.524 223.414 649.734 223.398 650.01C223.368 650.515 222.95 650.914 222.439 650.914H215.228V646.851C215.228 645.899 216 645.127 216.952 645.127H221.677C222.63 645.127 223.401 645.899 223.401 646.851V646.93C223.401 647.206 223.625 647.43 223.901 647.43C224.178 647.43 224.401 647.206 224.401 646.93V646.851C224.401 645.347 223.182 644.127 221.677 644.127H216.952C215.447 644.127 214.228 645.347 214.228 646.851V651.414Z" fill="#333333"/>
<path fill-rule="evenodd" clip-rule="evenodd" d="M210.469 641.589C210.625 641.5 210.721 641.334 210.721 641.155V639.535C211.492 638.778 211.972 637.722 211.972 636.555C211.972 634.247 210.102 632.377 207.795 632.377C205.487 632.377 203.617 634.247 203.617 636.555C203.617 638.862 205.487 640.732 207.795 640.732C208.01 640.732 208.222 640.716 208.428 640.684L209.968 641.586C210.122 641.677 210.314 641.678 210.469 641.589ZM209.721 640.282L208.775 639.728C208.669 639.666 208.544 639.645 208.424 639.67C208.221 639.71 208.01 639.732 207.795 639.732C206.04 639.732 204.617 638.309 204.617 636.555C204.617 634.8 206.04 633.377 207.795 633.377C209.549 633.377 210.972 634.8 210.972 636.555C210.972 637.506 210.554 638.358 209.891 638.942C209.783 639.037 209.721 639.173 209.721 639.317V640.282Z" fill="#333333"/>
<path d="M206.047 637.195C206.801 637.195 206.802 636.023 206.047 636.023C205.293 636.023 205.292 637.195 206.047 637.195Z" fill="#333333"/>
<path d="M207.795 637.195C208.549 637.195 208.55 636.023 207.795 636.023C207.041 636.023 207.039 637.195 207.795 637.195Z" fill="#333333"/>
<path d="M209.542 637.195C210.296 637.195 210.298 636.023 209.542 636.023C208.788 636.023 208.787 637.195 209.542 637.195Z" fill="#333333"/>
<path fill-rule="evenodd" clip-rule="evenodd" d="M201.408 626.173C201.563 626.262 201.755 626.261 201.909 626.17L203.449 625.268C203.656 625.299 203.867 625.316 204.083 625.316C206.39 625.316 208.26 623.446 208.26 621.138C208.26 620.563 208.144 620.014 207.933 619.514C207.825 619.26 207.532 619.141 207.277 619.248C207.023 619.355 206.904 619.649 207.011 619.903C207.171 620.282 207.26 620.699 207.26 621.138C207.26 622.893 205.837 624.316 204.083 624.316C203.867 624.316 203.657 624.294 203.453 624.253C203.333 624.229 203.208 624.25 203.102 624.312L202.156 624.866V623.901C202.156 623.757 202.095 623.62 201.987 623.525C201.323 622.942 200.905 622.089 200.905 621.138C200.905 619.383 202.328 617.961 204.083 617.961C204.522 617.961 204.94 618.05 205.319 618.21C205.574 618.318 205.867 618.199 205.974 617.945C206.082 617.69 205.963 617.397 205.709 617.289C205.208 617.078 204.658 616.961 204.083 616.961C201.775 616.961 199.905 618.831 199.905 621.138C199.905 622.306 200.385 623.361 201.156 624.119V625.739C201.156 625.918 201.252 626.084 201.408 626.173Z" fill="#333333"/>
<path d="M202.335 621.779C203.089 621.779 203.09 620.607 202.335 620.607C201.581 620.607 201.58 621.779 202.335 621.779Z" fill="#333333"/>
<path d="M204.083 621.779C204.837 621.779 204.838 620.607 204.083 620.607C203.329 620.607 203.327 621.779 204.083 621.779Z" fill="#333333"/>
<path d="M205.83 621.779C206.584 621.779 206.585 620.607 205.83 620.607C205.076 620.607 205.075 621.779 205.83 621.779Z" fill="#333333"/>
<path fill-rule="evenodd" clip-rule="evenodd" d="M211.686 621.298C211.841 621.209 211.937 621.043 211.937 620.864V619.244C212.708 618.487 213.189 617.431 213.189 616.263C213.189 613.956 211.318 612.086 209.011 612.086C206.704 612.086 204.834 613.956 204.834 616.263C204.834 618.571 206.704 620.441 209.011 620.441C209.227 620.441 209.438 620.424 209.645 620.393L211.184 621.295C211.339 621.386 211.53 621.387 211.686 621.298ZM210.937 619.991L209.992 619.437C209.886 619.375 209.761 619.354 209.641 619.378C209.437 619.419 209.227 619.441 209.011 619.441C207.256 619.441 205.834 618.018 205.834 616.263C205.834 614.509 207.256 613.086 209.011 613.086C210.766 613.086 212.189 614.509 212.189 616.263C212.189 617.215 211.771 618.067 211.107 618.651C210.999 618.745 210.937 618.882 210.937 619.026V619.991Z" fill="#333333"/>
<path fill-rule="evenodd" clip-rule="evenodd" d="M210.323 617.595C210.518 617.4 210.518 617.084 210.323 616.888L208.407 614.973C208.212 614.777 207.895 614.777 207.7 614.973C207.505 615.168 207.505 615.485 207.7 615.68L209.615 617.595C209.811 617.791 210.127 617.791 210.323 617.595Z" fill="#333333"/>
<path fill-rule="evenodd" clip-rule="evenodd" d="M207.7 617.595C207.895 617.791 208.212 617.791 208.407 617.595L210.322 615.68C210.518 615.485 210.518 615.168 210.322 614.973C210.127 614.777 209.811 614.777 209.615 614.973L207.7 616.888C207.505 617.084 207.505 617.4 207.7 617.595Z" fill="#333333"/>
</g>
</g>
<path d="M243.087 164.793L205.779 40.7622" stroke="url(#paint47_linear_46_48)" stroke-width="1.65817" stroke-miterlimit="10"/>
<g opacity="0.3">
<path d="M248.091 171.624C252.408 168.223 253.333 161.884 249.941 157.555C246.549 153.225 240.227 152.298 235.909 155.699C231.592 159.101 230.667 165.44 234.059 169.769C236.064 172.398 238.993 173.635 242.077 173.635C244.236 173.635 246.395 173.016 248.091 171.624Z" fill="url(#paint48_linear_46_48)"/>
<path d="M248.091 171.624C252.408 168.223 253.333 161.884 249.941 157.555C246.549 153.225 240.227 152.298 235.909 155.699C231.592 159.101 230.667 165.44 234.059 169.769C236.064 172.398 238.993 173.635 242.077 173.635C244.236 173.635 246.395 173.016 248.091 171.624Z" fill="url(#paint49_linear_46_48)"/>
</g>
<g opacity="0.1">
<path d="M165.817 40.7622C165.817 18.7086 183.725 0.634521 205.945 0.634521C228.164 0.634521 246.072 18.5427 246.072 40.7622C246.072 62.8158 228.164 80.8899 205.945 80.8899C183.725 80.8899 165.817 62.8158 165.817 40.7622Z" fill="black"/>
</g>
<path d="M166 40C166 18.0165 183.851 0 206 0C228.149 0 246 17.8512 246 40C246 61.9835 228.149 80 206 80C183.851 80 166 61.9835 166 40Z" fill="url(#paint50_linear_46_48)"/>
<path d="M559 335.469C559 437.492 476.098 520.635 374 520.635V453.889C439.197 453.889 492.149 400.89 492.149 335.635C492.149 270.38 439.197 217.381 374 217.381V150.636C476.098 150.304 559 233.446 559 335.469Z" fill="#FFCD01"/>
<path d="M190 335.469C190 437.492 272.902 520.635 375 520.635V453.889C309.803 453.889 256.851 400.89 256.851 335.635C256.851 270.38 309.803 217.381 375 217.381V150.636C272.902 150.304 190 233.446 190 335.469Z" fill="#FFCD01"/>
<path d="M380.752 268C347.494 279.191 319.439 302.005 308 336C319.308 369.607 347.1 392.676 380.752 404C410.677 380.981 426.995 362.494 439 336C421.769 324.458 414.531 318.516 400.561 300.655C381.843 309.328 365.551 319.435 351.118 335.631C356.298 342.992 364.897 349.862 371.849 355.507C381.981 348.078 389.708 340.84 394.714 334.629C397.852 338.455 401.391 341.001 404.761 343.129C396.055 357.906 386.285 366.019 374.22 373.768C356.098 364.197 341.531 347.629 334.451 333.62C347.721 311.792 368.535 297.053 392.185 288.839C388.353 282.143 383.331 275.908 380.752 268Z" fill="#FFE30B"/>
<g clip-path="url(#clip1_46_48)">
<path d="M68.5981 204.79C68.5981 205.135 68.3241 205.418 67.9791 205.418C67.6341 205.418 67.3513 205.135 67.3513 204.79V196.927C67.3513 196.397 67.5809 195.919 67.9525 195.575C68.3153 195.239 68.8019 195.035 69.3413 195.035H76.655C77.1944 195.035 77.6897 195.238 78.0431 195.575C78.4144 195.92 78.645 196.397 78.645 196.927V204.79C78.645 205.135 78.3706 205.418 78.0256 205.418C77.6806 205.418 77.3978 205.135 77.3978 204.79V196.927C77.3978 196.76 77.3269 196.6 77.2031 196.486C77.0619 196.362 76.8759 196.282 76.655 196.282H73.6213V204.79C73.6213 205.135 73.3475 205.418 73.0025 205.418C72.6578 205.418 72.3747 205.135 72.3747 204.79V196.282H69.3413C69.1291 196.282 68.9431 196.362 68.8019 196.485C68.6781 196.6 68.5984 196.759 68.5984 196.927L68.5981 204.79Z" fill="#333333"/>
<path d="M66.8384 186.651H70.924C71.269 186.651 71.5431 186.926 71.5431 187.27V191.073C71.5431 191.418 71.269 191.692 70.924 191.692H66.8384C66.4934 191.692 66.2194 191.418 66.2194 191.073V187.27C66.219 186.926 66.4934 186.651 66.8384 186.651ZM66.8384 179.09H70.924C71.269 179.09 71.5431 179.364 71.5431 179.709V183.512C71.5431 183.857 71.269 184.131 70.924 184.131H66.8384C66.4934 184.131 66.2194 183.856 66.2194 183.512V179.709C66.219 179.364 66.4934 179.09 66.8384 179.09ZM70.2962 180.337H67.4662V182.884H70.2962V180.337ZM77.1234 182.884C77.4684 182.884 77.7422 183.167 77.7422 183.512C77.7422 183.857 77.4681 184.131 77.1234 184.131H75.0806C74.7356 184.131 74.4525 183.857 74.4525 183.512V179.709C74.4525 179.364 74.7353 179.09 75.0806 179.09C75.4256 179.09 75.6997 179.364 75.6997 179.709V182.884H77.1234ZM75.0806 186.651H79.1575C79.5025 186.651 79.7853 186.926 79.7853 187.27V191.073C79.7853 191.418 79.5025 191.692 79.1575 191.692H75.0806C74.7356 191.692 74.4525 191.418 74.4525 191.073V187.27C74.4525 186.926 74.7356 186.651 75.0806 186.651ZM78.5387 187.898H75.7V190.445H78.5387V187.898ZM70.2962 187.898H67.4662V190.445H70.2962V187.898Z" fill="#333333"/>
<path d="M83.5084 187.156C83.3319 187.448 82.9519 187.553 82.6597 187.377C82.5622 187.315 82.4828 187.235 82.4297 187.147L77.0703 178.064C76.7959 177.595 76.5662 176.994 76.425 176.463C76.2831 175.915 76.2125 175.349 76.2125 174.765C76.2125 172.899 76.9644 171.21 78.1934 169.981C79.4141 168.761 81.1031 168 82.9781 168C84.8441 168 86.5331 168.761 87.7625 169.981C88.9828 171.211 89.7437 172.899 89.7437 174.766C89.7437 175.349 89.6641 175.915 89.5228 176.464C89.3809 177.03 89.1597 177.56 88.8859 178.056L83.5084 187.156ZM82.9781 185.617L87.8066 177.436C88.0278 177.038 88.2047 176.605 88.3197 176.154C88.4344 175.711 88.4962 175.252 88.4962 174.765C88.4962 173.244 87.8778 171.865 86.8781 170.865C85.8787 169.866 84.4991 169.247 82.9781 169.247C81.4481 169.247 80.0684 169.866 79.0694 170.865C78.0784 171.865 77.4597 173.244 77.4597 174.765C77.4597 175.252 77.5212 175.711 77.6278 176.154C77.7425 176.596 77.9194 177.02 78.1316 177.418L82.9781 185.617Z" fill="#333333"/>
<path d="M82.9781 171.157C83.9687 171.157 84.8706 171.564 85.5247 172.218C86.1794 172.864 86.5862 173.766 86.5862 174.765C86.5862 175.764 86.1791 176.667 85.5247 177.321C84.8703 177.967 83.9687 178.373 82.9781 178.373C81.9787 178.373 81.0766 177.967 80.4222 177.321C79.7678 176.667 79.37 175.765 79.37 174.765C79.37 173.766 79.7678 172.864 80.4222 172.218C81.0766 171.564 81.9784 171.157 82.9781 171.157ZM84.6406 173.094C84.2159 172.67 83.6237 172.404 82.9781 172.404C82.3237 172.404 81.7309 172.67 81.3066 173.094C80.8819 173.528 80.6169 174.111 80.6169 174.766C80.6169 175.42 80.8819 176.013 81.3066 176.437C81.7306 176.862 82.3237 177.127 82.9781 177.127C83.6237 177.127 84.2159 176.862 84.6406 176.437C85.0737 176.013 85.3391 175.42 85.3391 174.766C85.3391 174.111 85.0737 173.528 84.6406 173.094Z" fill="#333333"/>
<path d="M85.8606 198.378C85.5156 198.378 85.2422 198.095 85.2422 197.75C85.2422 197.405 85.5159 197.131 85.8606 197.131H88.1247C88.9031 197.131 89.5931 197.582 89.8937 198.298L92.8209 205.427C92.9447 205.727 92.9887 206.028 92.9534 206.329C92.8916 206.939 92.4844 207.505 91.945 207.788C91.6709 207.929 91.3703 208 91.0522 208H54.9525C54.6341 208 54.3334 207.929 54.0594 207.788C53.5109 207.505 53.1131 206.939 53.0425 206.329C53.0159 206.028 53.06 205.727 53.175 205.427L56.1112 198.298C56.4119 197.582 57.1016 197.131 57.88 197.131H60.1262C60.4712 197.131 60.7453 197.406 60.7453 197.75C60.7453 198.095 60.4712 198.378 60.1262 198.378H57.88C57.6059 198.378 57.3669 198.511 57.2609 198.776L54.3337 205.904C54.2894 206.002 54.2719 206.098 54.2806 206.196C54.3072 206.399 54.4487 206.585 54.6256 206.683C54.7228 206.727 54.8287 206.753 54.9528 206.753H91.0528C91.1766 206.753 91.2825 206.727 91.3712 206.683C91.5572 206.585 91.6984 206.4 91.7162 206.196C91.725 206.098 91.7162 206.002 91.6719 205.904L88.7447 198.776C88.6384 198.51 88.3997 198.378 88.1256 198.378H85.8606Z" fill="#333333"/>
<path d="M82.3503 189.835C82.3503 189.49 82.6331 189.207 82.9781 189.207C83.3231 189.207 83.5972 189.49 83.5972 189.835V204.79C83.5972 205.135 83.3228 205.417 82.9781 205.417H63.0266C62.6816 205.417 62.4075 205.135 62.4075 204.79V177.454C62.4075 176.923 62.6375 176.446 63.0091 176.101C63.3628 175.765 63.8581 175.552 64.3975 175.552H74.2403C74.5853 175.552 74.8594 175.835 74.8594 176.181C74.8594 176.526 74.585 176.808 74.2403 176.808H64.3975C64.1763 176.808 63.9906 176.879 63.8494 177.012C63.7256 177.127 63.6547 177.286 63.6547 177.454V204.17H82.3506L82.3503 189.835Z" fill="#333333"/>
</g>
<g clip-path="url(#clip2_46_48)">
<path d="M695.395 496.663C695.072 496.663 694.81 496.926 694.81 497.249V503.376C694.81 504.131 695.98 504.131 695.98 503.376V497.249C695.98 496.926 695.718 496.663 695.395 496.663Z" fill="#333333"/>
<path d="M695.395 483.462H690.799V481.351H692.204C693.06 481.351 693.756 480.655 693.756 479.799V465.552C693.756 464.696 693.06 464 692.204 464H670.366C669.51 464 668.814 464.696 668.814 465.552V467.654C668.814 468.409 669.984 468.409 669.984 467.654V465.552C669.984 465.342 670.155 465.171 670.366 465.171H692.204C692.414 465.171 692.585 465.342 692.585 465.552V476.902H690.799V470.666C690.799 470.473 690.703 470.292 690.544 470.183C690.385 470.074 690.182 470.05 690.002 470.12C689.848 470.179 686.619 471.498 685.932 476.902H669.984V470.698C669.984 469.943 668.814 469.943 668.814 470.698V479.799C668.814 480.655 669.51 481.351 670.366 481.351H678.229V483.462H664.938C666.234 482.167 666.361 480.116 666.361 478.393C666.361 478.069 666.099 477.807 665.776 477.807H662.615V476.702C664.492 477.101 666.54 475.561 666.514 473.608C666.511 473.346 666.479 473.081 666.237 472.921C665.125 472.187 663.594 472.493 662.615 473.294V472.238C664.287 471.084 664.412 468.365 662.804 467.096C662.642 466.968 662.463 466.846 662.271 466.768C661.446 466.431 660.539 467.901 660.342 468.468C659.878 469.808 660.298 471.35 661.444 472.2V473.288C660.692 472.676 659.711 472.375 658.752 472.567C658.356 472.646 657.662 472.826 657.576 473.306C657.204 475.372 659.545 477.102 661.444 476.704V477.807H658.049C657.725 477.807 657.463 478.069 657.463 478.393C657.463 480.113 657.557 482.167 658.853 483.462H656.605C656.282 483.462 656.02 483.724 656.02 484.047V503.376C656.02 504.131 657.19 504.131 657.19 503.376V500.644H667.766V503.376C667.766 504.131 668.937 504.131 668.937 503.376V488.468H689.636C689.639 488.672 689.659 489.771 689.661 490.1H679.755C677.44 490.1 675.726 490.702 674.658 491.89C673.376 493.317 673.545 495.046 673.553 495.118C673.585 495.416 673.836 495.641 674.135 495.641H681.698V496.695H679.395C678.64 496.695 678.64 497.866 679.395 497.866H681.698V502.79H674.205C673.45 502.79 673.45 503.961 674.205 503.961H682.074C682.139 503.986 682.209 504 682.283 504C682.357 504 682.427 503.986 682.492 503.961H690.361C691.116 503.961 691.116 502.79 690.361 502.79H682.868V495.641H686.779C688.123 495.641 689.094 495.317 689.749 494.651C690.896 493.483 690.861 491.527 690.817 489.051C690.813 488.86 690.81 488.665 690.807 488.468H694.81V493.971C694.81 494.726 695.98 494.726 695.98 493.971V484.047C695.98 483.724 695.718 483.462 695.395 483.462ZM663.592 474.029C664.346 473.551 665.001 473.664 665.342 473.784C665.239 474.998 663.764 475.881 662.636 475.498C662.684 475.123 662.874 474.484 663.592 474.029ZM659.701 475.247C659.204 474.931 658.781 474.388 658.726 473.784C659.899 473.372 661.277 474.285 661.43 475.498C660.861 475.691 660.2 475.563 659.701 475.247ZM662.059 467.994C663.04 468.739 662.996 470.441 662.056 471.198C661.766 470.959 661.329 470.458 661.329 469.602C661.329 468.71 661.775 468.217 662.059 467.994ZM658.642 478.978H665.181C665.082 482.14 664.139 483.388 661.912 483.388C659.655 483.388 658.737 482.18 658.642 478.978ZM688.914 493.831C688.491 494.261 687.792 494.471 686.779 494.471H674.733C674.787 494.003 674.967 493.298 675.529 492.673C676.365 491.742 677.787 491.271 679.755 491.271H689.646C689.598 492.418 689.424 493.311 688.914 493.831ZM692.585 478.073V479.799C692.585 480.01 692.414 480.181 692.204 480.181H690.799V478.073H692.585ZM688.712 472.691C689.031 472.27 689.351 471.957 689.628 471.73V486.392C689.352 486.156 689.034 485.834 688.718 485.407C687.577 483.866 686.974 481.657 686.974 479.017C686.974 476.381 687.575 474.194 688.712 472.691ZM685.961 481.351C686.073 482.139 686.238 482.84 686.44 483.462H684.341V481.351H685.961ZM669.984 479.799V478.073H685.828C685.791 478.775 685.795 479.479 685.841 480.18H670.366C670.155 480.181 669.984 480.01 669.984 479.799ZM679.399 481.351H683.17V483.462H679.399V481.351ZM686.9 484.633C687.51 485.936 688.267 486.778 688.879 487.298H657.19V484.633H686.9ZM657.19 499.473V494.556H667.766V499.473H657.19ZM667.766 493.385H657.19V488.468H667.766V493.385ZM690.799 487.298V484.633H694.81V487.298H690.799Z" fill="#333333"/>
<path d="M660.273 491.512H664.722C665.477 491.512 665.477 490.341 664.722 490.341H660.273C659.518 490.341 659.518 491.512 660.273 491.512Z" fill="#333333"/>
<path d="M664.722 496.429H660.273C659.518 496.429 659.518 497.6 660.273 497.6H664.722C665.477 497.6 665.477 496.429 664.722 496.429Z" fill="#333333"/>
</g>
<path d="M546.894 641.81C547.228 641.81 547.498 641.539 547.498 641.205C547.498 640.871 547.228 640.6 546.894 640.6C546.56 640.6 546.289 640.871 546.289 641.205C546.289 641.539 546.56 641.81 546.894 641.81Z" fill="#333333"/>
<path d="M557.236 639.31C556.191 639.31 555.341 640.16 555.341 641.205C555.341 642.25 556.191 643.099 557.236 643.099C558.281 643.099 559.131 642.25 559.131 641.205C559.131 640.16 558.281 639.31 557.236 639.31ZM557.236 641.89C556.858 641.89 556.551 641.583 556.551 641.205C556.551 640.827 556.858 640.52 557.236 640.52C557.614 640.52 557.921 640.827 557.921 641.205C557.921 641.583 557.614 641.89 557.236 641.89Z" fill="#333333"/>
<path d="M561.599 634.874H554.799C555.981 633.554 556.475 631.698 556.018 629.914L554.462 623.842C554.379 623.519 554.049 623.324 553.726 623.407C553.402 623.49 553.207 623.819 553.29 624.142L554.846 630.215C555.295 631.967 554.563 633.811 553.058 634.785L549.836 630.749C549.203 629.956 548.259 629.502 547.245 629.502H543H538.755C537.741 629.502 536.797 629.957 536.164 630.749L532.942 634.785C531.437 633.811 530.705 631.967 531.154 630.215L533.129 622.506C533.447 621.264 534.354 620.255 535.555 619.806L537.216 619.185C537.6 619.041 538.037 619.136 538.327 619.426L538.327 619.427L539.983 621.082C540.401 621.5 540.957 621.731 541.549 621.731H543H544.451C545.043 621.731 545.599 621.5 546.017 621.082L547.673 619.426C547.963 619.136 548.4 619.041 548.785 619.185L550.445 619.806C551.421 620.171 552.199 620.894 552.635 621.84C552.737 622.062 552.956 622.192 553.184 622.192C553.269 622.192 553.355 622.175 553.437 622.137C553.74 621.997 553.873 621.638 553.733 621.335C553.163 620.096 552.146 619.151 550.869 618.673L549.208 618.053C548.466 617.775 547.634 617.912 547.02 618.394H538.981C538.366 617.912 537.535 617.775 536.792 618.053L535.132 618.673C533.561 619.261 532.374 620.581 531.958 622.206L529.983 629.914C529.526 631.698 530.019 633.554 531.202 634.874H524.401C523.628 634.874 523 635.502 523 636.274V640.117V642.293V646.136C523 646.908 523.628 647.536 524.401 647.536H526.856V647.939C526.856 648.273 527.127 648.543 527.461 648.543C527.795 648.543 528.065 648.273 528.065 647.939V647.536H557.935V647.939C557.935 648.273 558.205 648.543 558.539 648.543C558.873 648.543 559.144 648.273 559.144 647.939V647.536H561.599C562.372 647.536 563 646.908 563 646.136V636.274C563 635.502 562.372 634.874 561.599 634.874ZM545.786 619.604L545.162 620.227C544.972 620.417 544.72 620.522 544.451 620.522H543H541.549C541.281 620.522 541.028 620.417 540.838 620.227L540.214 619.604H545.786ZM561.599 646.327H524.401C524.295 646.327 524.209 646.241 524.209 646.136V642.293V640.721H543.437V641.689H526.198C525.864 641.689 525.593 641.959 525.593 642.293C525.593 642.627 525.864 642.898 526.198 642.898H543.525C544.143 642.898 544.646 642.395 544.646 641.777V640.633C544.646 640.015 544.143 639.512 543.525 639.512H524.209V636.274C524.209 636.169 524.295 636.083 524.401 636.083H532.991C532.997 636.083 533.004 636.084 533.01 636.084C533.017 636.084 533.024 636.083 533.031 636.083H535.818C536.152 636.083 536.423 635.812 536.423 635.478C536.423 635.144 536.152 634.874 535.818 634.874H534.418L537.109 631.504C537.511 631 538.111 630.711 538.755 630.711H543H547.245C547.889 630.711 548.489 631 548.891 631.504L551.582 634.874H538.458C538.124 634.874 537.853 635.144 537.853 635.478C537.853 635.812 538.124 636.083 538.458 636.083H552.969C552.976 636.083 552.983 636.084 552.99 636.084C552.996 636.084 553.003 636.083 553.009 636.083H561.599C561.705 636.083 561.791 636.169 561.791 636.274V646.136H561.791C561.791 646.241 561.705 646.327 561.599 646.327Z" fill="#333333"/>
<path d="M536.709 620.214C535.581 620.214 534.664 621.131 534.664 622.259C534.664 623.386 535.581 624.303 536.709 624.303C537.836 624.303 538.754 623.386 538.754 622.259C538.754 621.131 537.836 620.214 536.709 620.214ZM536.709 623.094C536.248 623.094 535.873 622.719 535.873 622.258C535.873 621.798 536.248 621.423 536.709 621.423C537.17 621.423 537.544 621.798 537.544 622.258C537.544 622.719 537.169 623.094 536.709 623.094Z" fill="#333333"/>
<path d="M546.654 624.194C545.526 624.194 544.609 625.111 544.609 626.239C544.609 627.366 545.526 628.284 546.654 628.284C547.781 628.284 548.699 627.366 548.699 626.239C548.699 625.111 547.781 624.194 546.654 624.194ZM546.654 627.074C546.193 627.074 545.818 626.7 545.818 626.239C545.818 625.778 546.193 625.403 546.654 625.403C547.115 625.403 547.489 625.778 547.489 626.239C547.489 626.7 547.115 627.074 546.654 627.074Z" fill="#333333"/>
<path d="M549.565 621.588C549.899 621.588 550.17 621.317 550.17 620.983C550.17 620.649 549.899 620.378 549.565 620.378C549.231 620.378 548.96 620.649 548.96 620.983C548.96 621.317 549.231 621.588 549.565 621.588Z" fill="#333333"/>
<path d="M549.565 624.799C549.899 624.799 550.17 624.528 550.17 624.194C550.17 623.86 549.899 623.589 549.565 623.589C549.231 623.589 548.96 623.86 548.96 624.194C548.96 624.528 549.231 624.799 549.565 624.799Z" fill="#333333"/>
<path d="M547.838 623.218C548.172 623.218 548.443 622.947 548.443 622.614C548.443 622.28 548.172 622.009 547.838 622.009C547.504 622.009 547.234 622.28 547.234 622.614C547.234 622.947 547.504 623.218 547.838 623.218Z" fill="#333333"/>
<path d="M551.291 623.218C551.625 623.218 551.896 622.947 551.896 622.614C551.896 622.28 551.625 622.009 551.291 622.009C550.958 622.009 550.687 622.28 550.687 622.614C550.687 622.947 550.958 623.218 551.291 623.218Z" fill="#333333"/>
<path d="M541.338 625.634H540.503V624.799C540.503 624.465 540.232 624.194 539.898 624.194C539.564 624.194 539.293 624.465 539.293 624.799V625.634H538.458C538.124 625.634 537.853 625.905 537.853 626.239C537.853 626.573 538.124 626.843 538.458 626.843H539.293V627.679C539.293 628.013 539.564 628.284 539.898 628.284C540.232 628.284 540.503 628.013 540.503 627.679V626.843H541.338C541.672 626.843 541.943 626.573 541.943 626.239C541.943 625.905 541.672 625.634 541.338 625.634Z" fill="#333333"/>
<g clip-path="url(#clip3_46_48)">
<mask id="mask2_46_48" style="mask-type:luminance" maskUnits="userSpaceOnUse" x="656" y="168" width="40" height="40">
<path d="M656 168H696V208H656V168Z" fill="white"/>
</mask>
<g mask="url(#mask2_46_48)">
<path d="M678.547 178.237C678.364 178.387 678.13 178.478 677.875 178.478C677.732 178.478 677.591 178.462 677.456 178.433V182.467C677.456 182.52 677.454 182.572 677.452 182.625C678.821 182.702 680.07 181.69 680.07 180.46C680.07 179.505 679.451 178.535 678.547 178.237Z" stroke="#333333" stroke-miterlimit="10" stroke-linecap="round" stroke-linejoin="round"/>
<path d="M675.847 176.45C675.847 176.341 675.701 176.304 675.65 176.399C674.989 177.636 673.686 178.478 672.185 178.478H666.172V182.466C666.172 185.373 668.45 188.028 671.895 188.028C674.961 188.028 677.456 185.533 677.456 182.466V178.434C676.54 178.239 675.847 177.422 675.847 176.45Z" stroke="#333333" stroke-miterlimit="10" stroke-linecap="round" stroke-linejoin="round"/>
<path d="M666.172 182.467V178.478H665.477C665.266 178.478 665.064 178.437 664.879 178.365C664.128 178.731 663.559 179.593 663.559 180.46C663.559 181.688 664.805 182.703 666.176 182.625C666.174 182.572 666.172 182.519 666.172 182.467Z" stroke="#333333" stroke-miterlimit="10" stroke-linecap="round" stroke-linejoin="round"/>
<path d="M678.585 205.118C678.024 205.118 677.551 204.644 677.551 204.084V200.669C677.551 200.108 678.024 199.634 678.585 199.634C678.024 199.634 677.551 199.161 677.551 198.6V195.185C677.551 194.624 678.024 194.15 678.585 194.15C678.024 194.15 677.551 193.677 677.551 193.116V190.362C676.473 189.944 675.596 189.605 675.327 189.5C675.111 189.417 674.967 189.209 674.966 188.976L674.965 187.1C674.085 187.686 673.029 188.028 671.895 188.028C670.676 188.028 669.604 187.694 668.726 187.136V188.972C668.726 189.404 668.341 189.508 668.177 189.572C667.933 189.667 661.466 192.174 660.489 192.552C659.185 193.089 657.439 194.777 657.439 197.283V206.398C657.439 206.959 657.894 207.414 658.456 207.414H685.24C685.802 207.414 686.257 206.959 686.257 206.398V205.118H678.585Z" stroke="#333333" stroke-miterlimit="10" stroke-linecap="round" stroke-linejoin="round"/>
<path d="M673.092 192.726C672.994 192.636 672.953 192.509 672.967 192.387H670.742C670.757 192.509 670.715 192.636 670.617 192.726L670.505 192.829V196.67C670.505 196.983 670.758 197.236 671.07 197.236H672.639C672.951 197.236 673.204 196.983 673.204 196.67V192.829L673.092 192.726Z" stroke="#333333" stroke-miterlimit="10" stroke-linecap="round" stroke-linejoin="round"/>
<path d="M677.551 190.362C676.616 190 675.834 189.697 675.466 189.554L673.068 192.166C672.92 192.327 672.931 192.578 673.092 192.726L674.496 194.016C674.657 194.164 674.908 194.153 675.056 193.992L677.551 191.275V190.362Z" stroke="#333333" stroke-miterlimit="10" stroke-linecap="round" stroke-linejoin="round"/>
<path d="M665.535 190.596L668.653 193.992C668.801 194.153 669.052 194.164 669.213 194.016L670.617 192.726C670.779 192.578 670.789 192.327 670.641 192.166L668.238 189.549C668.216 189.557 668.195 189.565 668.177 189.572C668.077 189.611 666.925 190.057 665.535 190.596Z" stroke="#333333" stroke-miterlimit="10" stroke-linecap="round" stroke-linejoin="round"/>
<path d="M661.695 207.334V197.987" stroke="#333333" stroke-miterlimit="10" stroke-linecap="round" stroke-linejoin="round"/>
<path d="M693.526 199.634H678.585C678.024 199.634 677.551 200.108 677.551 200.669V204.084C677.551 204.645 678.024 205.118 678.585 205.118H693.526C694.087 205.118 694.561 204.645 694.561 204.084V200.669C694.561 200.108 694.087 199.634 693.526 199.634Z" stroke="#333333" stroke-miterlimit="10" stroke-linecap="round" stroke-linejoin="round"/>
<path d="M685.083 202.376H680.084" stroke="#333333" stroke-miterlimit="10" stroke-linecap="round" stroke-linejoin="round"/>
<path d="M685.083 196.892H680.084" stroke="#333333" stroke-miterlimit="10" stroke-linecap="round" stroke-linejoin="round"/>
<path d="M692.02 196.892H690.962" stroke="#333333" stroke-miterlimit="10" stroke-linecap="round" stroke-linejoin="round"/>
<path d="M693.526 194.15H678.585C678.024 194.15 677.551 194.624 677.551 195.185V198.6C677.551 199.161 678.024 199.634 678.585 199.634H693.526C694.087 199.634 694.561 199.161 694.561 198.6V195.185C694.561 194.624 694.087 194.15 693.526 194.15Z" stroke="#333333" stroke-miterlimit="10" stroke-linecap="round" stroke-linejoin="round"/>
<path d="M685.083 196.892H680.084" stroke="#333333" stroke-miterlimit="10" stroke-linecap="round" stroke-linejoin="round"/>
<path d="M692.02 196.892H690.962" stroke="#333333" stroke-miterlimit="10" stroke-linecap="round" stroke-linejoin="round"/>
<path d="M685.083 191.408H680.084" stroke="#333333" stroke-miterlimit="10" stroke-linecap="round" stroke-linejoin="round"/>
<path d="M692.02 191.408H690.962" stroke="#333333" stroke-miterlimit="10" stroke-linecap="round" stroke-linejoin="round"/>
<path d="M685.083 191.408H680.084" stroke="#333333" stroke-miterlimit="10" stroke-linecap="round" stroke-linejoin="round"/>
<path d="M692.02 191.408H690.962" stroke="#333333" stroke-miterlimit="10" stroke-linecap="round" stroke-linejoin="round"/>
<path d="M692.02 202.376H690.962" stroke="#333333" stroke-miterlimit="10" stroke-linecap="round" stroke-linejoin="round"/>
<path d="M688.901 196.892H687.843" stroke="#333333" stroke-miterlimit="10" stroke-linecap="round" stroke-linejoin="round"/>
<path d="M688.901 196.892H687.843" stroke="#333333" stroke-miterlimit="10" stroke-linecap="round" stroke-linejoin="round"/>
<path d="M688.901 191.408H687.843" stroke="#333333" stroke-miterlimit="10" stroke-linecap="round" stroke-linejoin="round"/>
<path d="M688.901 191.408H687.843" stroke="#333333" stroke-miterlimit="10" stroke-linecap="round" stroke-linejoin="round"/>
<path d="M688.901 202.376H687.843" stroke="#333333" stroke-miterlimit="10" stroke-linecap="round" stroke-linejoin="round"/>
<path d="M689.897 205.118V206.454C689.897 206.982 690.329 207.414 690.857 207.414H692.113C692.641 207.414 693.073 206.982 693.073 206.454V205.118H689.897Z" stroke="#333333" stroke-miterlimit="10" stroke-linecap="round" stroke-linejoin="round"/>
<path d="M679.039 205.118V206.454C679.039 206.982 679.471 207.414 679.999 207.414H681.255C681.783 207.414 682.215 206.982 682.215 206.454V205.118H679.039Z" stroke="#333333" stroke-miterlimit="10" stroke-linecap="round" stroke-linejoin="round"/>
<path d="M684.89 188.666H678.585C678.024 188.666 677.551 189.14 677.551 189.701V193.116C677.551 193.677 678.024 194.15 678.585 194.15H693.526C694.087 194.15 694.561 193.677 694.561 193.116V189.701C694.561 189.14 694.087 188.666 693.526 188.666H687.624" stroke="#333333" stroke-miterlimit="10" stroke-linecap="round" stroke-linejoin="round"/>
<path d="M678.938 173.532V172.917C678.938 171.857 678.014 171.087 677.095 171.157C676.563 171.198 676.076 170.864 675.974 170.341C675.801 169.46 675.365 168.586 673.662 168.586H667.751C665.582 168.586 663.823 170.344 663.823 172.514V176.824C663.823 177.738 664.564 178.478 665.477 178.478H672.185C673.686 178.478 674.989 177.636 675.65 176.4C675.701 176.304 675.847 176.341 675.847 176.45C675.847 177.565 676.76 178.478 677.875 178.478C678.46 178.478 678.938 178 678.938 177.415V176.266" stroke="#333333" stroke-miterlimit="10" stroke-linecap="round" stroke-linejoin="round"/>
</g>
</g>
<g clip-path="url(#clip4_46_48)">
<mask id="mask3_46_48" style="mask-type:luminance" maskUnits="userSpaceOnUse" x="186" y="21" width="40" height="40">
<path d="M186 21H226V61H186V21Z" fill="white"/>
</mask>
<g mask="url(#mask3_46_48)">
<path d="M198.817 58.8313C205.747 61.6193 213.974 60.2055 219.59 54.5897C226.427 47.7521 227.036 37.044 221.415 29.5176" stroke="#333333" stroke-miterlimit="10" stroke-linecap="round" stroke-linejoin="round"/>
<path d="M196 57.4173C196.01 57.4235 196.02 57.4297 196.03 57.4359" stroke="#333333" stroke-miterlimit="10" stroke-linecap="round" stroke-linejoin="round"/>
<path d="M224.568 29.2813H221.156V32.6927" stroke="#333333" stroke-miterlimit="10" stroke-linecap="round" stroke-linejoin="round"/>
<path d="M213.295 23.2141C206.341 20.3655 198.056 21.7643 192.41 27.4103C185.573 34.248 184.964 44.9561 190.585 52.4824" stroke="#333333" stroke-miterlimit="10" stroke-linecap="round" stroke-linejoin="round"/>
<path d="M216.104 24.6464C216.091 24.6384 216.078 24.6304 216.065 24.6225" stroke="#333333" stroke-miterlimit="10" stroke-linecap="round" stroke-linejoin="round"/>
<path d="M187.465 52.8229H190.948V49.3398" stroke="#333333" stroke-miterlimit="10" stroke-linecap="round" stroke-linejoin="round"/>
<path d="M204.123 41C204.123 42.0364 204.964 42.8766 206 42.8766C207.036 42.8766 207.877 42.0364 207.877 41C207.877 39.9636 207.036 39.1235 206 39.1235C204.964 39.1235 204.123 39.9636 204.123 41Z" stroke="#333333" stroke-miterlimit="10" stroke-linecap="round" stroke-linejoin="round"/>
<path d="M194.523 34.0047C191.364 39.1782 192.022 46.026 196.498 50.5018C201.746 55.7494 210.254 55.7494 215.502 50.5018C220.749 45.2541 220.749 36.7459 215.502 31.4982C211.029 27.0254 204.187 26.365 199.015 29.517" stroke="#333333" stroke-miterlimit="10" stroke-linecap="round" stroke-linejoin="round"/>
<path d="M196.478 31.519C196.464 31.5327 196.471 31.5258 196.457 31.5397" stroke="#333333" stroke-miterlimit="10" stroke-linecap="round" stroke-linejoin="round"/>
<path d="M216.451 41.0125H215.978" stroke="#333333" stroke-miterlimit="10" stroke-linecap="round" stroke-linejoin="round"/>
<path d="M195.549 40.9875H196.022" stroke="#333333" stroke-miterlimit="10" stroke-linecap="round" stroke-linejoin="round"/>
<path d="M206.012 30.5491V31.0223" stroke="#333333" stroke-miterlimit="10" stroke-linecap="round" stroke-linejoin="round"/>
<path d="M205.988 51.4509V50.9776" stroke="#333333" stroke-miterlimit="10" stroke-linecap="round" stroke-linejoin="round"/>
<path d="M204.673 39.6731L201.61 36.6102" stroke="#333333" stroke-miterlimit="10" stroke-linecap="round" stroke-linejoin="round"/>
<path d="M207.327 39.6731L213.037 33.9629" stroke="#333333" stroke-miterlimit="10" stroke-linecap="round" stroke-linejoin="round"/>
</g>
</g>
<g clip-path="url(#clip5_46_48)">
<path d="M86.9199 478.129C86.1667 477.84 85.3631 477.577 84.5182 477.341C84.7363 476.491 84.9105 475.664 85.0363 474.867C85.6906 470.717 84.9675 467.806 83.0001 466.67C82.4282 466.34 81.7709 466.173 81.0466 466.173C78.7587 466.173 75.8678 467.872 72.9514 470.741C72.3143 470.116 71.6743 469.541 71.0363 469.025C67.77 466.383 64.8874 465.554 62.9202 466.69C61.6558 467.42 60.8869 468.911 60.6967 471.001C60.6647 471.352 60.9234 471.662 61.2745 471.694C61.6266 471.727 61.9359 471.468 61.9679 471.117C62.0733 469.96 62.4346 468.444 63.5584 467.796C65.0146 466.955 67.4477 467.765 70.2336 470.017C70.8415 470.509 71.4518 471.057 72.0601 471.654C70.8368 472.956 69.6196 474.454 68.4507 476.109C66.3946 476.296 64.4361 476.61 62.6387 477.041C62.324 475.818 62.1078 474.65 62.0012 473.566C61.9667 473.216 61.6557 472.959 61.3035 472.994C60.9527 473.028 60.6963 473.341 60.7308 473.691C60.8437 474.838 61.0719 476.072 61.4046 477.362C60.5879 477.593 59.8106 477.848 59.0803 478.129C55.1592 479.637 53 481.719 53 483.991C53 486.263 55.1592 488.344 59.0801 489.852C59.8333 490.142 60.6369 490.405 61.4818 490.641C61.2637 491.49 61.0895 492.318 60.9637 493.115C60.3094 497.265 61.0325 500.175 62.9999 501.311C63.5718 501.642 64.2291 501.809 64.9534 501.809C67.215 501.809 70.0659 500.148 72.9482 497.338C73.5656 497.941 74.1856 498.497 74.8037 498.996C77.1153 500.866 79.2343 501.827 80.973 501.827C81.6911 501.827 82.3448 501.663 82.9199 501.331C84.8873 500.195 85.6105 497.284 84.9561 493.135C84.8304 492.338 84.6563 491.51 84.4381 490.661C85.7521 490.299 86.9607 489.873 88.0311 489.388C88.3523 489.242 88.4946 488.864 88.349 488.543C88.2035 488.222 87.8252 488.079 87.5042 488.225C86.4904 488.684 85.3444 489.089 84.0963 489.433C83.5803 487.708 82.8932 485.908 82.0558 484.087C82.9308 482.205 83.646 480.342 84.1786 478.561C88.9161 479.887 91.7234 481.982 91.7234 483.991C91.7234 485.288 90.5918 486.359 89.6426 487.029C89.3545 487.232 89.2857 487.63 89.4888 487.918C89.6921 488.206 90.0903 488.275 90.3784 488.072C92.0935 486.862 93 485.451 93 483.991C93 481.719 90.8408 479.637 86.9199 478.129ZM81.0465 467.449C81.5438 467.449 81.9864 467.559 82.3617 467.776C83.818 468.617 84.3333 471.129 83.7751 474.668C83.6555 475.426 83.49 476.213 83.2824 477.023C81.4775 476.595 79.5123 476.284 77.4499 476.1C76.2928 474.463 75.0783 472.965 73.8435 471.653C74.0694 471.431 74.2956 471.214 74.5213 471.006C77.0108 468.713 79.3281 467.449 81.0465 467.449ZM72.9532 472.569C73.9163 473.595 74.8681 474.74 75.7892 475.982C74.8727 475.932 73.9414 475.906 73 475.906C72.0271 475.906 71.0649 475.933 70.1187 475.986C71.0386 474.747 71.9916 473.597 72.9532 472.569ZM72.9487 495.518C71.9514 494.461 70.966 493.276 70.0137 491.989C70.9936 492.046 71.9911 492.076 73 492.076C73.9718 492.076 74.9346 492.048 75.8826 491.993C74.9311 493.276 73.9442 494.462 72.9487 495.518ZM73 490.799C71.6285 490.799 70.3125 490.746 69.0584 490.648C68.354 489.62 67.6725 488.539 67.0237 487.415C66.3852 486.309 65.7978 485.193 65.2657 484.082C65.818 482.92 66.4323 481.75 67.1037 480.587C67.7539 479.46 68.4441 478.368 69.1613 477.326C70.3846 477.233 71.6659 477.182 73 477.182C74.2998 477.182 75.5494 477.23 76.7442 477.319C77.462 478.363 78.1561 479.463 78.8164 480.606C79.4845 481.764 80.0959 482.928 80.6462 484.085C80.1169 485.186 79.5321 486.294 78.8964 487.395C78.2475 488.519 77.5586 489.609 76.8428 490.649C75.5904 490.748 74.3041 490.799 73 490.799ZM67.4157 490.488C65.8453 490.307 64.3875 490.052 63.0579 489.738C63.4616 488.395 63.9734 487.001 64.5837 485.586C65.0006 486.411 65.4457 487.235 65.9181 488.053C66.4005 488.889 66.901 489.702 67.4157 490.488ZM67.517 477.482C66.9969 478.275 66.4891 479.098 65.9981 479.948C65.4932 480.823 65.0195 481.702 64.5788 482.58C63.9369 481.107 63.3994 479.655 62.9798 478.261C64.3588 477.933 65.877 477.667 67.517 477.482ZM54.2766 483.991C54.2766 481.993 57.054 479.91 61.7453 478.582C62.2759 480.353 62.9879 482.21 63.8563 484.084C63.0212 485.902 62.3359 487.699 61.8212 489.421C57.0839 488.094 54.2766 485.999 54.2766 483.991ZM64.9535 500.532C64.4562 500.532 64.0136 500.422 63.6383 500.206C62.182 499.365 61.6667 496.853 62.2249 493.314C62.3445 492.556 62.51 491.768 62.7176 490.959C64.4638 491.373 66.3602 491.677 68.3494 491.863C69.5367 493.549 70.7849 495.087 72.054 496.429C71.8622 496.616 71.6703 496.799 71.4787 496.975C68.9892 499.269 66.6719 500.532 64.9535 500.532ZM83.6951 493.334C84.2534 496.873 83.7381 499.385 82.2818 500.226C80.8254 501.066 78.3925 500.257 75.6066 498.004C75.0199 497.529 74.4309 497.002 73.8438 496.429C75.1001 495.104 76.3512 493.57 77.5513 491.869C79.5455 491.686 81.4511 491.385 83.2014 490.975C83.4095 491.786 83.5754 492.574 83.6951 493.334ZM82.8586 489.746C81.4914 490.064 80.0236 490.314 78.4893 490.49C79.0071 489.7 79.5128 488.88 80.0019 488.033C80.4714 487.22 80.9136 486.403 81.3277 485.586C81.9401 487.004 82.4535 488.4 82.8586 489.746ZM81.3336 482.585C80.8951 481.712 80.424 480.838 79.922 479.968C79.4268 479.11 78.9127 478.276 78.3835 477.47C80.0307 477.653 81.5559 477.917 82.9421 478.243C82.5204 479.647 81.9803 481.105 81.3336 482.585Z" fill="#333333"/>
<path d="M73 480.799C71.2402 480.799 69.8085 482.231 69.8085 483.991C69.8085 485.751 71.2402 487.182 73 487.182C74.7598 487.182 76.1915 485.751 76.1915 483.991C76.1915 482.231 74.7598 480.799 73 480.799ZM73 485.906C71.9442 485.906 71.0851 485.047 71.0851 483.991C71.0851 482.935 71.9442 482.076 73 482.076C74.0558 482.076 74.9149 482.935 74.9149 483.991C74.9149 485.047 74.0558 485.906 73 485.906Z" fill="#333333"/>
</g>
<mask id="mask4_46_48" style="mask-type:luminance" maskUnits="userSpaceOnUse" x="523" y="21" width="40" height="40">
<path d="M523 21H563V61H523V21Z" fill="white"/>
</mask>
<g mask="url(#mask4_46_48)">
<path d="M541.171 56.911H558.634C559.595 56.911 560.373 56.1323 560.373 55.1716V48.4287" stroke="#333333" stroke-miterlimit="10" stroke-linecap="round" stroke-linejoin="round"/>
<path d="M539.321 21.5859H534.58C533.619 21.5859 532.84 22.3646 532.84 23.3253V34.8406" stroke="#333333" stroke-miterlimit="10" stroke-linecap="round" stroke-linejoin="round"/>
<path d="M560.373 45.7587V23.3253C560.373 22.3647 559.595 21.5859 558.634 21.5859H541.991" stroke="#333333" stroke-miterlimit="10" stroke-linecap="round" stroke-linejoin="round"/>
<path d="M557 31.5464H536.214V25.7872H557V31.5464Z" stroke="#333333" stroke-miterlimit="10" stroke-linecap="round" stroke-linejoin="round"/>
<path d="M542.105 35.8601C542.298 35.5269 542.659 35.3029 543.073 35.3029H544.523C545.141 35.3029 545.643 35.804 545.643 36.4222C545.643 37.0403 545.141 37.5414 544.523 37.5414H543.541" stroke="#333333" stroke-miterlimit="10" stroke-linecap="round" stroke-linejoin="round"/>
<path d="M550.141 37.5414H548.691C548.072 37.5414 547.571 37.0403 547.571 36.4222C547.571 35.804 548.072 35.3029 548.691 35.3029H550.141C550.759 35.3029 551.261 35.804 551.261 36.4222C551.261 37.0403 550.759 37.5414 550.141 37.5414Z" stroke="#333333" stroke-miterlimit="10" stroke-linecap="round" stroke-linejoin="round"/>
<path d="M555.759 37.5414H554.309C553.69 37.5414 553.189 37.0403 553.189 36.4222C553.189 35.804 553.69 35.3029 554.309 35.3029H555.759C556.377 35.3029 556.879 35.804 556.879 36.4222C556.879 37.0403 556.377 37.5414 555.759 37.5414Z" stroke="#333333" stroke-miterlimit="10" stroke-linecap="round" stroke-linejoin="round"/>
<path d="M543.385 41.0003H544.523C545.141 41.0003 545.643 41.5014 545.643 42.1196C545.643 42.7377 545.141 43.2388 544.523 43.2388H543.073C542.454 43.2388 541.953 42.7377 541.953 42.1196" stroke="#333333" stroke-miterlimit="10" stroke-linecap="round" stroke-linejoin="round"/>
<path d="M550.141 43.2388H548.691C548.072 43.2388 547.571 42.7377 547.571 42.1196C547.571 41.5014 548.072 41.0003 548.691 41.0003H550.141C550.759 41.0003 551.261 41.5014 551.261 42.1196C551.261 42.7377 550.759 43.2388 550.141 43.2388Z" stroke="#333333" stroke-miterlimit="10" stroke-linecap="round" stroke-linejoin="round"/>
<path d="M555.759 43.2388H554.309C553.69 43.2388 553.189 42.7377 553.189 42.1196C553.189 41.5014 553.69 41.0003 554.309 41.0003H555.759C556.377 41.0003 556.879 41.5014 556.879 42.1196C556.879 42.7377 556.377 43.2388 555.759 43.2388Z" stroke="#333333" stroke-miterlimit="10" stroke-linecap="round" stroke-linejoin="round"/>
<path d="M541.953 46.6977C541.953 46.0796 542.454 45.5785 543.073 45.5785H544.523C545.142 45.5785 545.643 46.0796 545.643 46.6977C545.643 47.3158 545.142 47.817 544.523 47.817H543.229" stroke="#333333" stroke-miterlimit="10" stroke-linecap="round" stroke-linejoin="round"/>
<path d="M550.141 47.817H548.691C548.072 47.817 547.571 47.3158 547.571 46.6977C547.571 46.0796 548.072 45.5785 548.691 45.5785H550.141C550.759 45.5785 551.261 46.0796 551.261 46.6977C551.261 47.3158 550.759 47.817 550.141 47.817Z" stroke="#333333" stroke-miterlimit="10" stroke-linecap="round" stroke-linejoin="round"/>
<path d="M555.759 47.817H554.309C553.69 47.817 553.189 47.3158 553.189 46.6977C553.189 46.0796 553.69 45.5785 554.309 45.5785H555.759C556.377 45.5785 556.879 46.0796 556.879 46.6977C556.879 47.3158 556.377 47.817 555.759 47.817Z" stroke="#333333" stroke-miterlimit="10" stroke-linecap="round" stroke-linejoin="round"/>
<path d="M543.541 50.1566H544.523C545.141 50.1566 545.643 50.6577 545.643 51.2758C545.643 51.894 545.141 52.3951 544.523 52.3951H543.229" stroke="#333333" stroke-miterlimit="10" stroke-linecap="round" stroke-linejoin="round"/>
<path d="M550.141 52.3951H548.691C548.072 52.3951 547.571 51.894 547.571 51.2758C547.571 50.6577 548.072 50.1566 548.691 50.1566H550.141C550.759 50.1566 551.261 50.6577 551.261 51.2758C551.261 51.894 550.759 52.3951 550.141 52.3951Z" stroke="#333333" stroke-miterlimit="10" stroke-linecap="round" stroke-linejoin="round"/>
<path d="M555.759 52.3951H554.309C553.69 52.3951 553.189 51.894 553.189 51.2758C553.189 50.6577 553.69 50.1566 554.309 50.1566H555.759C556.377 50.1566 556.879 50.6577 556.879 51.2758C556.879 51.894 556.377 52.3951 555.759 52.3951Z" stroke="#333333" stroke-miterlimit="10" stroke-linecap="round" stroke-linejoin="round"/>
<path d="M525.627 54.6026V57.8743C525.627 59.1093 528.324 60.1381 531.899 60.3666" stroke="#333333" stroke-miterlimit="10" stroke-linecap="round" stroke-linejoin="round"/>
<path d="M534.569 60.3854C538.307 60.2009 541.171 59.1469 541.171 57.8744V54.6026" stroke="#333333" stroke-miterlimit="10" stroke-linecap="round" stroke-linejoin="round"/>
<path d="M540.705 53.7341C541.007 54.0051 541.171 54.2976 541.171 54.6027C541.171 56.0053 537.692 57.1423 533.399 57.1423C529.106 57.1423 525.627 56.0053 525.627 54.6027C525.627 53.8464 526.638 53.1673 528.244 52.7021" stroke="#333333" stroke-miterlimit="10" stroke-linecap="round" stroke-linejoin="round"/>
<path d="M527.835 48.4427V51.7144C527.835 53.1171 531.315 54.254 535.608 54.254C539.9 54.254 543.38 53.1171 543.38 51.7144V48.4427" stroke="#333333" stroke-miterlimit="10" stroke-linecap="round" stroke-linejoin="round"/>
<path d="M540.733 46.5333C542.356 46.9988 543.38 47.6816 543.38 48.4427C543.38 49.8453 539.9 50.9823 535.608 50.9823C531.315 50.9823 527.835 49.8453 527.835 48.4427C527.835 48.1332 528.005 47.8365 528.315 47.5622" stroke="#333333" stroke-miterlimit="10" stroke-linecap="round" stroke-linejoin="round"/>
<path d="M525.627 42.2827V45.5544C525.627 46.9571 529.106 48.0941 533.399 48.0941C537.692 48.0941 541.171 46.9571 541.171 45.5544V42.5424" stroke="#333333" stroke-miterlimit="10" stroke-linecap="round" stroke-linejoin="round"/>
<path d="M541.131 42.5424C540.733 43.823 537.423 44.8224 533.399 44.8224C529.106 44.8224 525.627 43.6854 525.627 42.2827C525.627 41.6309 526.378 41.0365 527.613 40.5868" stroke="#333333" stroke-miterlimit="10" stroke-linecap="round" stroke-linejoin="round"/>
<path d="M527.835 37.3802V40.652C527.835 42.0546 531.315 43.1917 535.608 43.1917C539.9 43.1917 543.38 42.0546 543.38 40.652V37.3802" stroke="#333333" stroke-miterlimit="10" stroke-linecap="round" stroke-linejoin="round"/>
<path d="M543.38 37.3803C543.38 38.7829 539.9 39.9199 535.608 39.9199C531.315 39.9199 527.835 38.7829 527.835 37.3803C527.835 35.9777 531.315 34.8406 535.608 34.8406C539.9 34.8406 543.38 35.9777 543.38 37.3803Z" stroke="#333333" stroke-miterlimit="10" stroke-linecap="round" stroke-linejoin="round"/>
<path d="M528.376 33.1542H530.357" stroke="#333333" stroke-miterlimit="10" stroke-linecap="round" stroke-linejoin="round"/>
<path d="M528.376 31.3385H530.357" stroke="#333333" stroke-miterlimit="10" stroke-linecap="round" stroke-linejoin="round"/>
<path d="M530.361 29.3242H530.353" stroke="#333333" stroke-miterlimit="10" stroke-linecap="round" stroke-linejoin="round"/>
</g>
<defs>
<radialGradient id="paint0_radial_46_48" cx="0" cy="0" r="1" gradientUnits="userSpaceOnUse" gradientTransform="translate(375 336) rotate(90) scale(188)">
<stop stop-color="#FFD201" stop-opacity="0.41"/>
<stop offset="1" stop-color="#FFD201" stop-opacity="0"/>
</radialGradient>
<linearGradient id="paint1_linear_46_48" x1="291.132" y1="252.496" x2="458.635" y2="420" gradientUnits="userSpaceOnUse">
<stop stop-color="#F5F5F5"/>
<stop offset="1" stop-color="white"/>
</linearGradient>
<linearGradient id="paint2_linear_46_48" x1="374.076" y1="335.634" x2="591.781" y2="335.634" gradientUnits="userSpaceOnUse">
<stop stop-color="white"/>
<stop offset="1" stop-color="#F5F5F5"/>
</linearGradient>
<linearGradient id="paint3_linear_46_48" x1="374.075" y1="335.634" x2="156.37" y2="335.634" gradientUnits="userSpaceOnUse">
<stop stop-color="white"/>
<stop offset="1" stop-color="#F5F5F5"/>
</linearGradient>
<linearGradient id="paint4_linear_46_48" x1="nan" y1="nan" x2="nan" y2="nan" gradientUnits="userSpaceOnUse">
<stop stop-color="white"/>
<stop offset="1" stop-color="#F5F5F5"/>
</linearGradient>
<linearGradient id="paint5_linear_46_48" x1="568.383" y1="457.832" x2="676.59" y2="457.832" gradientUnits="userSpaceOnUse">
<stop stop-color="white"/>
<stop offset="1" stop-color="#F5F5F5"/>
</linearGradient>
<linearGradient id="paint6_linear_46_48" x1="505.698" y1="569.63" x2="544.368" y2="569.63" gradientUnits="userSpaceOnUse">
<stop stop-color="white"/>
<stop offset="1" stop-color="#F5F5F5"/>
</linearGradient>
<linearGradient id="paint7_linear_46_48" x1="497.855" y1="499.528" x2="512.963" y2="514.595" gradientUnits="userSpaceOnUse">
<stop stop-color="#E991FC"/>
<stop offset="1" stop-color="#7533D8"/>
</linearGradient>
<linearGradient id="paint8_linear_46_48" x1="492.897" y1="495.957" x2="516.496" y2="518.776" gradientUnits="userSpaceOnUse">
<stop stop-color="#FFDF00"/>
<stop offset="1" stop-color="#FFB800"/>
</linearGradient>
<linearGradient id="paint9_linear_46_48" x1="560.842" y1="423.47" x2="575.932" y2="438.535" gradientUnits="userSpaceOnUse">
<stop stop-color="#E991FC"/>
<stop offset="1" stop-color="#7533D8"/>
</linearGradient>
<linearGradient id="paint10_linear_46_48" x1="555.897" y1="419.957" x2="579.496" y2="442.776" gradientUnits="userSpaceOnUse">
<stop stop-color="#FFDF00"/>
<stop offset="1" stop-color="#FFB800"/>
</linearGradient>
<linearGradient id="paint11_linear_46_48" x1="582.889" y1="327.602" x2="597.955" y2="342.668" gradientUnits="userSpaceOnUse">
<stop stop-color="#E991FC"/>
<stop offset="1" stop-color="#7533D8"/>
</linearGradient>
<linearGradient id="paint12_linear_46_48" x1="577.897" y1="323.957" x2="601.496" y2="346.776" gradientUnits="userSpaceOnUse">
<stop stop-color="#FFDF00"/>
<stop offset="1" stop-color="#FFB800"/>
</linearGradient>
<linearGradient id="paint13_linear_46_48" x1="559.91" y1="232.566" x2="574.995" y2="247.669" gradientUnits="userSpaceOnUse">
<stop stop-color="#E991FC"/>
<stop offset="1" stop-color="#7533D8"/>
</linearGradient>
<linearGradient id="paint14_linear_46_48" x1="554.897" y1="228.957" x2="578.496" y2="251.776" gradientUnits="userSpaceOnUse">
<stop stop-color="#FFDF00"/>
<stop offset="1" stop-color="#FFB800"/>
</linearGradient>
<linearGradient id="paint15_linear_46_48" x1="647.746" y1="158.782" x2="704.199" y2="215.235" gradientUnits="userSpaceOnUse">
<stop stop-color="#E991FC"/>
<stop offset="1" stop-color="#7533D8"/>
</linearGradient>
<linearGradient id="paint16_linear_46_48" x1="627.588" y1="144.288" x2="721.984" y2="235.568" gradientUnits="userSpaceOnUse">
<stop stop-color="#FFDF00"/>
<stop offset="1" stop-color="#FFB800"/>
</linearGradient>
<linearGradient id="paint17_linear_46_48" x1="680.746" y1="306.774" x2="737.199" y2="363.226" gradientUnits="userSpaceOnUse">
<stop stop-color="#E991FC"/>
<stop offset="1" stop-color="#7533D8"/>
</linearGradient>
<linearGradient id="paint18_linear_46_48" x1="660.588" y1="292.288" x2="754.984" y2="383.568" gradientUnits="userSpaceOnUse">
<stop stop-color="#FFDF00"/>
<stop offset="1" stop-color="#FFB800"/>
</linearGradient>
<linearGradient id="paint19_linear_46_48" x1="647.746" y1="454.765" x2="704.199" y2="511.218" gradientUnits="userSpaceOnUse">
<stop stop-color="#E991FC"/>
<stop offset="1" stop-color="#7533D8"/>
</linearGradient>
<linearGradient id="paint20_linear_46_48" x1="627.588" y1="440.288" x2="721.984" y2="531.568" gradientUnits="userSpaceOnUse">
<stop stop-color="#FFDF00"/>
<stop offset="1" stop-color="#FFB800"/>
</linearGradient>
<linearGradient id="paint21_linear_46_48" x1="494.588" y1="588.288" x2="588.984" y2="679.568" gradientUnits="userSpaceOnUse">
<stop stop-color="#FFDF00"/>
<stop offset="1" stop-color="#FFB800"/>
</linearGradient>
<linearGradient id="paint22_linear_46_48" x1="505.517" y1="102.797" x2="544.368" y2="102.797" gradientUnits="userSpaceOnUse">
<stop stop-color="white"/>
<stop offset="1" stop-color="#F5F5F5"/>
</linearGradient>
<linearGradient id="paint23_linear_46_48" x1="497.849" y1="156.486" x2="512.999" y2="171.594" gradientUnits="userSpaceOnUse">
<stop stop-color="#E991FC"/>
<stop offset="1" stop-color="#7533D8"/>
</linearGradient>
<linearGradient id="paint24_linear_46_48" x1="492.897" y1="152.957" x2="516.496" y2="175.776" gradientUnits="userSpaceOnUse">
<stop stop-color="#FFDF00"/>
<stop offset="1" stop-color="#FFB800"/>
</linearGradient>
<linearGradient id="paint25_linear_46_48" x1="514.746" y1="11.7911" x2="571.199" y2="68.2438" gradientUnits="userSpaceOnUse">
<stop stop-color="#E991FC"/>
<stop offset="1" stop-color="#7533D8"/>
</linearGradient>
<linearGradient id="paint26_linear_46_48" x1="494.588" y1="-2.71187" x2="588.984" y2="88.5677" gradientUnits="userSpaceOnUse">
<stop stop-color="#FFDF00"/>
<stop offset="1" stop-color="#FFB800"/>
</linearGradient>
<linearGradient id="paint27_linear_46_48" x1="nan" y1="nan" x2="nan" y2="nan" gradientUnits="userSpaceOnUse">
<stop stop-color="white"/>
<stop offset="1" stop-color="#F5F5F5"/>
</linearGradient>
<linearGradient id="paint28_linear_46_48" x1="180.982" y1="457.833" x2="72.7754" y2="457.833" gradientUnits="userSpaceOnUse">
<stop stop-color="white"/>
<stop offset="1" stop-color="#F5F5F5"/>
</linearGradient>
<linearGradient id="paint29_linear_46_48" x1="180.982" y1="215.158" x2="72.7754" y2="215.158" gradientUnits="userSpaceOnUse">
<stop stop-color="white"/>
<stop offset="1" stop-color="#F5F5F5"/>
</linearGradient>
<linearGradient id="paint30_linear_46_48" x1="243.668" y1="569.63" x2="204.997" y2="569.63" gradientUnits="userSpaceOnUse">
<stop stop-color="white"/>
<stop offset="1" stop-color="#F5F5F5"/>
</linearGradient>
<linearGradient id="paint31_linear_46_48" x1="234.987" y1="499.527" x2="250.1" y2="514.599" gradientUnits="userSpaceOnUse">
<stop stop-color="#FFDB65"/>
<stop offset="1" stop-color="#FF8C33"/>
</linearGradient>
<linearGradient id="paint32_linear_46_48" x1="229.897" y1="495.957" x2="253.496" y2="518.776" gradientUnits="userSpaceOnUse">
<stop stop-color="#FFDF00"/>
<stop offset="1" stop-color="#FFB800"/>
</linearGradient>
<linearGradient id="paint33_linear_46_48" x1="172.003" y1="423.47" x2="187.094" y2="438.536" gradientUnits="userSpaceOnUse">
<stop stop-color="#FFDB65"/>
<stop offset="1" stop-color="#FF8C33"/>
</linearGradient>
<linearGradient id="paint34_linear_46_48" x1="166.897" y1="419.957" x2="190.496" y2="442.776" gradientUnits="userSpaceOnUse">
<stop stop-color="#FFDF00"/>
<stop offset="1" stop-color="#FFB800"/>
</linearGradient>
<linearGradient id="paint35_linear_46_48" x1="147.955" y1="327.602" x2="163.023" y2="342.67" gradientUnits="userSpaceOnUse">
<stop stop-color="#FFDB65"/>
<stop offset="1" stop-color="#FF8C33"/>
</linearGradient>
<linearGradient id="paint36_linear_46_48" x1="142.897" y1="323.957" x2="166.496" y2="346.776" gradientUnits="userSpaceOnUse">
<stop stop-color="#FFDF00"/>
<stop offset="1" stop-color="#FFB800"/>
</linearGradient>
<linearGradient id="paint37_linear_46_48" x1="171.899" y1="232.565" x2="186.988" y2="247.671" gradientUnits="userSpaceOnUse">
<stop stop-color="#FFDB65"/>
<stop offset="1" stop-color="#FF8C33"/>
</linearGradient>
<linearGradient id="paint38_linear_46_48" x1="166.897" y1="228.957" x2="190.496" y2="251.776" gradientUnits="userSpaceOnUse">
<stop stop-color="#FFDF00"/>
<stop offset="1" stop-color="#FFB800"/>
</linearGradient>
<linearGradient id="paint39_linear_46_48" x1="44.6212" y1="158.783" x2="101.074" y2="215.236" gradientUnits="userSpaceOnUse">
<stop stop-color="#FFDB65"/>
<stop offset="1" stop-color="#FF8C33"/>
</linearGradient>
<linearGradient id="paint40_linear_46_48" x1="24.5883" y1="144.288" x2="118.984" y2="235.568" gradientUnits="userSpaceOnUse">
<stop stop-color="#FFDF00"/>
<stop offset="1" stop-color="#FFB800"/>
</linearGradient>
<linearGradient id="paint41_linear_46_48" x1="11.6212" y1="306.774" x2="68.0739" y2="363.227" gradientUnits="userSpaceOnUse">
<stop stop-color="#FFDB65"/>
<stop offset="1" stop-color="#FF8C33"/>
</linearGradient>
<linearGradient id="paint42_linear_46_48" x1="-8.41168" y1="292.288" x2="85.9836" y2="383.568" gradientUnits="userSpaceOnUse">
<stop stop-color="#FFDF00"/>
<stop offset="1" stop-color="#FFB800"/>
</linearGradient>
<linearGradient id="paint43_linear_46_48" x1="44.6212" y1="454.765" x2="101.074" y2="511.218" gradientUnits="userSpaceOnUse">
<stop stop-color="#FFDB65"/>
<stop offset="1" stop-color="#FF8C33"/>
</linearGradient>
<linearGradient id="paint44_linear_46_48" x1="24.5883" y1="440.288" x2="118.984" y2="531.568" gradientUnits="userSpaceOnUse">
<stop stop-color="#FFDF00"/>
<stop offset="1" stop-color="#FFB800"/>
</linearGradient>
<linearGradient id="paint45_linear_46_48" x1="176.621" y1="601.757" x2="233.074" y2="658.209" gradientUnits="userSpaceOnUse">
<stop stop-color="#FFDB65"/>
<stop offset="1" stop-color="#FF8C33"/>
</linearGradient>
<linearGradient id="paint46_linear_46_48" x1="156.588" y1="587.288" x2="250.984" y2="678.568" gradientUnits="userSpaceOnUse">
<stop stop-color="#FFDF00"/>
<stop offset="1" stop-color="#FFB800"/>
</linearGradient>
<linearGradient id="paint47_linear_46_48" x1="243.848" y1="102.798" x2="204.997" y2="102.798" gradientUnits="userSpaceOnUse">
<stop stop-color="white"/>
<stop offset="1" stop-color="#F5F5F5"/>
</linearGradient>
<linearGradient id="paint48_linear_46_48" x1="234.959" y1="156.49" x2="250.102" y2="171.591" gradientUnits="userSpaceOnUse">
<stop stop-color="#FFDB65"/>
<stop offset="1" stop-color="#FF8C33"/>
</linearGradient>
<linearGradient id="paint49_linear_46_48" x1="229.897" y1="152.957" x2="253.496" y2="175.776" gradientUnits="userSpaceOnUse">
<stop stop-color="#FFDF00"/>
<stop offset="1" stop-color="#FFB800"/>
</linearGradient>
<linearGradient id="paint50_linear_46_48" x1="157.588" y1="-2.71187" x2="251.984" y2="88.5676" gradientUnits="userSpaceOnUse">
<stop stop-color="#FFDF00"/>
<stop offset="1" stop-color="#FFB800"/>
</linearGradient>
<clipPath id="clip0_46_48">
<rect width="40" height="40" fill="white" transform="translate(186 612)"/>
</clipPath>
<clipPath id="clip1_46_48">
<rect width="40" height="40" fill="white" transform="translate(53 168)"/>
</clipPath>
<clipPath id="clip2_46_48">
<rect width="40" height="40" fill="white" transform="translate(656 464)"/>
</clipPath>
<clipPath id="clip3_46_48">
<rect width="40" height="40" fill="white" transform="translate(656 168)"/>
</clipPath>
<clipPath id="clip4_46_48">
<rect width="40" height="40" fill="white" transform="translate(186 21)"/>
</clipPath>
<clipPath id="clip5_46_48">
<rect width="40" height="40" fill="white" transform="translate(53 464)"/>
</clipPath>
</defs>
</svg>
